<svg width="261" height="138" viewBox="0 0 261 138" fill="none" xmlns="http://www.w3.org/2000/svg">
<rect x="47.3262" y="43.4854" width="203.974" height="82.0796" rx="18.3148" transform="rotate(-8.15316 47.3262 43.4854)" fill="#2866E0"/>
<g filter="url(#filter0_d_809_856)">
<circle cx="49.616" cy="40.6164" r="31.593" transform="rotate(-12.3426 49.616 40.6164)" fill="#CBE8F9"/>
<circle cx="49.616" cy="40.6164" r="32.5087" transform="rotate(-12.3426 49.616 40.6164)" stroke="white" stroke-width="1.83148"/>
</g>
<mask id="mask0_809_856" style="mask-type:alpha" maskUnits="userSpaceOnUse" x="18" y="9" width="64" height="64">
<circle cx="49.616" cy="40.6164" r="31.593" transform="rotate(-12.3426 49.616 40.6164)" fill="#59D4BE"/>
</mask>
<g mask="url(#mask0_809_856)">
<path fill-rule="evenodd" clip-rule="evenodd" d="M42.3183 48.0136C38.2651 46.3779 34.6864 43.6553 32.882 39.4641C27.6829 27.3881 45.3695 21.4907 51.5924 25.7247C57.8153 29.9588 65.1491 45.0687 61.5792 48.2465C60.1555 49.5138 56.1302 50.2941 51.475 50.0084L61.8015 64.5076L48.6202 71.3234L42.3183 48.0136Z" fill="#B28B67"/>
<path fill-rule="evenodd" clip-rule="evenodd" d="M44.5751 35.048C48.6818 41.7534 51.8175 44.5464 53.9823 43.4271C57.2298 41.7479 58.9284 38.2799 60.3533 37.5431C61.3921 37.006 61.8263 38.4142 61.6317 39.7255C61.4712 40.8073 59.0977 42.9973 59.7294 44.2191C60.3612 45.4409 62.058 43.3655 62.4327 44.0901C63.0525 45.2887 64.6019 47.3437 62.503 48.429C60.3789 49.5273 53.8919 51.9093 51.2325 49.3242C49.5161 47.6559 46.9199 43.7024 43.4437 37.4636C43.307 37.515 43.1718 37.575 43.0388 37.6438C41.2189 38.5849 40.4996 40.8101 41.4324 42.6139C41.9059 43.5297 42.7141 44.1608 43.6333 44.4371C43.4223 45.8981 43.144 47.4543 42.7594 49.1105C37.9496 48.8252 31.9086 43.833 32.3242 35.8216C31.76 32.294 33.1781 29.5207 35.4495 27.3989C37.1409 25.393 39.3239 24.1367 41.4873 23.6962C45.3483 22.0983 49.2287 21.5084 50.5079 21.6882C52.3024 25.1587 52.1564 26.5391 46.3146 29.4448C45.2761 30.9264 44.8451 32.7759 44.5751 35.048Z" fill="#191847"/>
<path fill-rule="evenodd" clip-rule="evenodd" d="M52.9138 60L57.512 57.1236C82.3422 65.3545 102.331 92.5569 131.418 99.3645L128.749 108.266C87.7576 119.495 62.8973 86.5108 52.9138 60Z" fill="#0F806B"/>
<path fill-rule="evenodd" clip-rule="evenodd" d="M56.7723 130.7C76.6005 122.55 91.1857 116.556 100.528 112.716C102.527 111.895 100.97 109.176 100.085 107.846C89.8729 92.4858 69.4392 79.8026 59.651 55.9867L46.2204 59.2046C42.6475 80.202 47.4914 102.255 56.7723 130.7Z" fill="#DDE3E9"/>
<path fill-rule="evenodd" clip-rule="evenodd" d="M37.2102 82.103C35.1617 82.3321 33.2075 81.7058 31.3476 80.2242C23.3303 73.8373 23.1221 68.5923 27.4359 65.0671C31.7497 61.5419 37.4152 62.8227 45.2698 59.5944C45.6971 59.4188 46.0993 59.2847 46.4766 59.1919L50.5199 57.7924C77.5685 91.3634 91.178 115.585 91.3485 130.457L56.9095 144.612C56.8149 150.185 56.4995 154.971 55.9633 158.969L46.5793 162.826C34.0176 134.774 30.8946 107.866 37.2102 82.103Z" fill="#35A994"/>
</g>
<path d="M98.0666 25.0233C96.6873 25.1703 95.4688 24.8433 94.4109 24.0425C93.3521 23.232 92.7341 21.9963 92.5571 20.3354C92.3801 18.6745 92.7242 17.3411 93.5895 16.3354C94.4635 15.3188 95.5853 14.7376 96.9548 14.5916C98.062 14.4736 99.0304 14.6651 99.8598 15.1661C100.698 15.6563 101.277 16.3854 101.596 17.3534L100.316 17.7845C100.072 17.0639 99.666 16.5276 99.098 16.1756C98.5398 15.8225 97.8624 15.6884 97.066 15.7733C95.9976 15.8872 95.1709 16.3338 94.586 17.1132C94.0108 17.8916 93.791 18.917 93.9266 20.1894C94.0622 21.4618 94.4932 22.4178 95.2195 23.0575C95.9545 23.6865 96.8562 23.944 97.9247 23.8301C98.7114 23.7463 99.3366 23.4832 99.8003 23.0408C100.274 22.5975 100.565 22.0114 100.674 21.2827L102.029 21.4182C101.87 22.4175 101.442 23.2391 100.745 23.8832C100.047 24.5273 99.1544 24.9073 98.0666 25.0233ZM103.909 24.2827L102.81 13.9676L104.048 13.8356L105.147 24.1507L103.909 24.2827ZM105.966 13.6312L107.394 13.479L107.562 15.0525L106.134 15.2047L105.966 13.6312ZM107.153 23.937L106.37 16.594L107.609 16.462L108.391 23.805L107.153 23.937ZM116.614 18.8766C116.635 19.0806 116.646 19.271 116.645 19.4479L110.846 20.0659C110.964 20.7999 111.261 21.3724 111.737 21.7834C112.221 22.1836 112.794 22.3485 113.454 22.2781C114.018 22.2181 114.471 22.0421 114.813 21.7503C115.155 21.4584 115.355 21.0785 115.413 20.6106L116.608 20.7632C116.499 21.4919 116.175 22.0864 115.634 22.5468C115.104 23.0061 114.416 23.2808 113.571 23.3708C112.493 23.4857 111.585 23.2141 110.847 22.5561C110.118 21.897 109.697 21.0332 109.583 19.9648C109.468 18.8867 109.693 17.9541 110.257 17.167C110.831 16.3692 111.656 15.9128 112.734 15.7979C113.793 15.6851 114.679 15.9296 115.391 16.5314C116.103 17.1236 116.51 17.9053 116.614 18.8766ZM110.809 19.0237L115.253 18.5501C115.132 17.9736 114.859 17.5263 114.432 17.2083C114.005 16.8904 113.476 16.765 112.845 16.8323C112.272 16.8934 111.805 17.12 111.444 17.5121C111.082 17.8945 110.87 18.3984 110.809 19.0237ZM118.635 22.7132L117.852 15.3703L119.091 15.2383L119.238 16.6224C119.452 16.1379 119.763 15.7365 120.171 15.4179C120.579 15.0994 121.055 14.9111 121.599 14.8531C122.366 14.7714 123.018 14.9426 123.554 15.3667C124.1 15.7899 124.415 16.3899 124.498 17.167L125.016 22.0331L123.778 22.1651L123.284 17.5321C123.23 17.027 123.036 16.6351 122.702 16.3564C122.367 16.0679 121.947 15.9506 121.441 16.0045C120.752 16.078 120.233 16.4181 119.885 17.025C119.546 17.621 119.428 18.3999 119.53 19.3614L119.873 22.5813L118.635 22.7132ZM130.657 21.373C130.349 21.5237 129.972 21.6229 129.525 21.6705C128.865 21.7409 128.315 21.6079 127.876 21.2715C127.446 20.9244 127.19 20.3623 127.107 19.5853L126.676 15.535L125.306 15.681L125.19 14.5883L126.559 14.4423L126.322 12.2132L127.56 12.0813L127.798 14.3104L129.764 14.1007L129.881 15.1934L127.914 15.4031L128.35 19.497C128.391 19.8758 128.518 20.152 128.733 20.3256C128.948 20.4991 129.221 20.5683 129.551 20.5331C129.911 20.4948 130.21 20.3991 130.449 20.2459L130.657 21.373Z" fill="#44484F"/>
<path d="M92.4127 66.846L87.879 57.1312L89.2426 56.9373L92.8924 65.2238L94.1165 56.2442L95.4946 56.0482L99.159 64.3327L100.354 55.3572L101.718 55.1633L100.086 65.7547L98.6938 65.9527L95.0934 58.118L93.7908 66.65L92.4127 66.846ZM109.575 63.4434C108.979 64.2484 108.139 64.7279 107.056 64.8819C105.973 65.036 105.033 64.8095 104.237 64.2026C103.439 63.586 102.962 62.7313 102.807 61.6385C102.651 60.5457 102.871 59.5968 103.467 58.7919C104.062 57.9772 104.901 57.4929 105.984 57.3389C107.067 57.1848 108.007 57.4161 108.805 58.0327C109.612 58.6383 110.093 59.4875 110.248 60.5803C110.403 61.673 110.179 62.6274 109.575 63.4434ZM105.025 63.2913C105.549 63.7199 106.174 63.8826 106.9 63.7795C107.625 63.6763 108.18 63.3459 108.564 62.788C108.947 62.2205 109.083 61.5451 108.972 60.7618C108.86 59.9785 108.542 59.3725 108.017 58.944C107.491 58.5057 106.866 58.3382 106.14 58.4413C105.415 58.5445 104.861 58.8798 104.478 59.4473C104.094 60.0051 103.957 60.6757 104.069 61.459C104.18 62.2423 104.499 62.8531 105.025 63.2913ZM113.786 63.8065L110.513 56.8132L111.775 56.6337L114.15 61.9937L115.068 56.1655L116.257 55.9963L118.763 61.3377L119.535 55.5301L120.826 55.3465L119.618 62.9772L118.414 63.1485L115.912 57.8361L114.99 63.6353L113.786 63.8065ZM123.237 59.5323L121.853 52.2998L123.449 52.0729L124.136 59.4044L123.237 59.5323ZM123.17 60.933L124.591 60.7308L124.806 62.2394L123.384 62.4416L123.17 60.933ZM126.949 59.0045L125.565 51.772L127.16 51.5451L127.848 58.8766L126.949 59.0045ZM126.881 60.4052L128.303 60.203L128.517 61.7116L127.096 61.9138L126.881 60.4052ZM130.66 58.4767L129.276 51.2443L130.872 51.0173L131.559 58.3488L130.66 58.4767ZM130.593 59.8774L132.014 59.6752L132.229 61.1838L130.807 61.386L130.593 59.8774ZM154.992 59.5156L155.4 56.3497L157.053 56.1145L155.862 59.3918L154.992 59.5156ZM162.65 56.8577L161.206 46.7036L162.526 46.5159L163.97 56.67L162.65 56.8577ZM169.345 55.9057L167.885 45.6355L170.017 45.3323L171.478 55.6024L169.345 55.9057ZM176.64 54.9867C175.509 55.1476 174.53 54.9266 173.704 54.3238C172.887 53.71 172.401 52.8567 172.245 51.7639C172.09 50.6711 172.32 49.7209 172.935 48.9131C173.558 48.0944 174.436 47.6045 175.567 47.4436C176.679 47.2855 177.649 47.5127 178.476 48.1251C179.311 48.7266 179.807 49.5737 179.962 50.6665C180.118 51.7592 179.879 52.7157 179.246 53.5358C178.621 54.3449 177.752 54.8286 176.64 54.9867ZM176.382 53.1735C176.895 53.1006 177.285 52.8625 177.553 52.4593C177.82 52.0465 177.912 51.5499 177.83 50.9697C177.747 50.3895 177.521 49.9431 177.151 49.6307C176.78 49.3086 176.338 49.184 175.825 49.2569C175.303 49.3311 174.908 49.5747 174.642 49.9876C174.373 50.3908 174.28 50.8825 174.363 51.4627C174.445 52.0429 174.672 52.4941 175.044 52.8162C175.414 53.1286 175.86 53.2477 176.382 53.1735ZM183.329 53.917L179.635 46.9836L181.768 46.6803L183.936 51.3149L184.727 46.2595L186.874 45.9542L185.259 53.6427L183.329 53.917ZM194.958 48.3416C195.003 48.6608 195.031 48.9281 195.042 49.1436L189.791 49.8903C190.136 50.7884 190.772 51.1715 191.701 51.0395C192.484 50.9281 192.913 50.5464 192.988 49.8944L195.066 50.1465C194.951 50.8633 194.612 51.4592 194.048 51.934C193.482 52.3992 192.765 52.6937 191.894 52.8174C190.714 52.9852 189.737 52.7394 188.963 52.08C188.197 51.4095 187.743 50.5763 187.601 49.5802C187.51 48.9419 187.546 48.33 187.71 47.7444C187.873 47.1588 188.208 46.6327 188.714 46.1661C189.229 45.6981 189.888 45.4071 190.691 45.2929C191.32 45.2036 191.896 45.235 192.421 45.3873C192.954 45.5285 193.391 45.7574 193.732 46.074C194.073 46.3905 194.345 46.7416 194.548 47.1271C194.761 47.5113 194.897 47.9161 194.958 48.3416ZM189.605 48.3776L192.579 47.9547C192.485 47.5734 192.296 47.2846 192.012 47.0882C191.736 46.8808 191.37 46.8095 190.916 46.8741C190.123 46.9869 189.686 47.488 189.605 48.3776ZM204.351 50.8684C204.049 51.0298 203.675 51.1422 203.23 51.2054C202.572 51.299 202.019 51.1853 201.568 50.8646C201.127 50.5327 200.851 49.98 200.741 49.2064L200.167 45.1737L198.804 45.3676L198.649 44.2797L200.012 44.0858L199.697 41.8664L200.93 41.691L201.245 43.9104L203.204 43.632L203.358 44.7199L201.4 44.9984L201.98 49.0745C202.033 49.4517 202.171 49.7232 202.392 49.8891C202.613 50.055 202.887 50.1146 203.216 50.0679C203.574 50.017 203.87 49.9108 204.103 49.7493L204.351 50.8684ZM205.926 50.7037L204.465 40.4335L205.698 40.2582L206.323 44.6535C206.708 43.5431 207.466 42.9074 208.598 42.7465C209.429 42.6283 210.125 42.771 210.686 43.1747C211.256 43.5771 211.598 44.1747 211.711 44.9677L212.395 49.7837L211.162 49.959L210.511 45.3752C210.433 44.8336 210.214 44.4356 209.852 44.1812C209.499 43.9158 209.042 43.8229 208.481 43.9027C207.804 43.9989 207.303 44.3612 206.978 44.9896C206.662 45.6165 206.574 46.4184 206.713 47.3951L207.159 50.5284L205.926 50.7037ZM212.849 39.2412L214.271 39.0391L214.494 40.6057L213.072 40.8079L212.849 39.2412ZM214.397 49.499L213.357 42.1881L214.59 42.0127L215.63 49.3237L214.397 49.499ZM220.095 48.8072C219.282 48.9227 218.586 48.8097 218.004 48.4681C217.433 48.1251 217.013 47.6718 216.745 47.108L217.738 46.4932C218.214 47.4812 218.95 47.9044 219.946 47.7627C220.381 47.7009 220.719 47.5443 220.96 47.293C221.209 47.0307 221.311 46.7448 221.267 46.4354C221.219 46.0969 221.036 45.8516 220.718 45.6994C220.401 45.5473 220.027 45.4524 219.598 45.4148C219.178 45.3759 218.752 45.328 218.319 45.2711C217.895 45.2031 217.516 45.035 217.182 44.7668C216.848 44.4986 216.644 44.1082 216.571 43.5957C216.489 43.0155 216.654 42.5134 217.068 42.0896C217.481 41.6658 218.079 41.3982 218.863 41.2868C219.51 41.1947 220.11 41.2821 220.661 41.549C221.211 41.8063 221.601 42.1899 221.831 42.6998L220.865 43.2959C220.716 42.9422 220.461 42.6775 220.101 42.5018C219.749 42.3151 219.374 42.2499 218.978 42.3063C218.562 42.3655 218.245 42.4944 218.027 42.6932C217.807 42.8823 217.718 43.1219 217.759 43.412C217.793 43.6538 217.923 43.8376 218.148 43.9635C218.383 44.0879 218.66 44.162 218.979 44.1857C219.306 44.1983 219.662 44.2366 220.046 44.3004C220.428 44.3545 220.784 44.4272 221.113 44.5186C221.442 44.61 221.731 44.8056 221.981 45.1056C222.239 45.3944 222.402 45.7758 222.469 46.2497C222.56 46.8879 222.387 47.4452 221.952 47.9215C221.516 48.3978 220.897 48.693 220.095 48.8072ZM96.3733 77.005L97.6353 76.8256L95.2208 87.3212L93.9588 87.5006L94.6279 84.6084L90.745 77.8054L92.0795 77.6156L95.0227 82.9096L96.3733 77.005ZM105.451 82.211C104.855 83.0159 104.016 83.4954 102.933 83.6494C101.85 83.8035 100.91 83.577 100.113 82.9701C99.3149 82.3535 98.8382 81.4988 98.6828 80.406C98.5274 79.3132 98.7476 78.3643 99.3435 77.5594C99.938 76.7447 100.777 76.2604 101.86 76.1064C102.943 75.9524 103.884 76.1837 104.682 76.8003C105.488 77.4058 105.969 78.255 106.124 79.3478C106.28 80.4405 106.055 81.3949 105.451 82.211ZM100.901 82.0589C101.426 82.4874 102.051 82.6501 102.776 82.547C103.501 82.4439 104.056 82.1134 104.44 81.5555C104.823 80.988 104.959 80.3126 104.848 79.5293C104.736 78.746 104.418 78.14 103.894 77.7115C103.368 77.2732 102.742 77.1057 102.017 77.2088C101.291 77.312 100.737 77.6473 100.354 78.2148C99.9699 78.7726 99.8334 79.4432 99.9448 80.2265C100.056 81.0099 100.375 81.6206 100.901 82.0589ZM113.536 74.5644L114.576 81.8754L113.343 82.0507L113.147 80.6726C112.95 81.1643 112.654 81.5764 112.257 81.9091C111.86 82.2418 111.391 82.4466 110.85 82.5236C110.086 82.6323 109.423 82.4847 108.863 82.081C108.312 81.6759 107.981 81.0865 107.871 80.3129L107.182 75.4679L108.415 75.2926L109.071 79.9054C109.143 80.4083 109.351 80.798 109.696 81.0745C110.04 81.3413 110.463 81.439 110.966 81.3675C111.653 81.2698 112.155 80.9172 112.473 80.3096C112.8 79.6909 112.895 78.9029 112.759 77.9455L112.303 74.7397L113.536 74.5644ZM124.435 73.0144L125.654 72.8411L126.644 79.804C126.775 80.7227 126.561 81.5127 126.004 82.174C125.458 82.8436 124.682 83.25 123.677 83.393C122.826 83.514 122.071 83.4092 121.412 83.0787C120.755 82.7578 120.326 82.2761 120.126 81.6336L121.287 81.2614C121.383 81.662 121.638 81.9613 122.051 82.1591C122.475 82.3652 122.967 82.4283 123.528 82.3486C124.176 82.2564 124.678 82.0026 125.033 81.587C125.388 81.1714 125.525 80.6784 125.444 80.1078L125.3 79.0924C125.179 79.4252 124.915 79.7193 124.508 79.9746C124.1 80.2299 123.635 80.3947 123.113 80.4689C122.02 80.6243 121.117 80.4124 120.403 79.8331C119.697 79.2428 119.269 78.4158 119.118 77.352C118.965 76.2786 119.146 75.3649 119.66 74.611C120.173 73.8474 120.971 73.3886 122.054 73.2346C122.538 73.1658 123.012 73.2069 123.478 73.3578C123.942 73.499 124.308 73.7133 124.576 74.0008L124.435 73.0144ZM121.278 78.9095C121.768 79.3035 122.366 79.4504 123.072 79.35C123.778 79.2496 124.307 78.9426 124.658 78.4289C125.019 77.9139 125.145 77.2744 125.036 76.5104C124.927 75.7464 124.628 75.1674 124.138 74.7734C123.656 74.3684 123.062 74.216 122.356 74.3164C121.641 74.4182 121.103 74.7314 120.744 75.2561C120.392 75.7698 120.271 76.4086 120.38 77.1726C120.488 77.9365 120.788 78.5155 121.278 78.9095ZM134.006 71.6535L135.045 78.9644L133.812 79.1398L133.616 77.7617C133.42 78.2534 133.123 78.6655 132.727 78.9982C132.33 79.3308 131.861 79.5357 131.319 79.6127C130.555 79.7213 129.893 79.5738 129.332 79.1701C128.782 78.765 128.451 78.1756 128.341 77.4019L127.652 72.557L128.885 72.3816L129.541 76.9945C129.613 77.4974 129.821 77.8871 130.166 78.1636C130.51 78.4304 130.933 78.528 131.436 78.4565C132.123 78.3589 132.625 78.0063 132.943 77.3987C133.27 76.78 133.365 75.992 133.229 75.0346L132.773 71.8288L134.006 71.6535ZM140.826 70.6836L142.088 70.5041L139.673 80.9997L138.411 81.1792L139.081 78.287L135.198 71.484L136.532 71.2942L139.475 76.5881L140.826 70.6836ZM146.657 77.4315C145.845 77.5471 145.148 77.434 144.567 77.0925C143.995 76.7495 143.575 76.2961 143.308 75.7324L144.301 75.1176C144.777 76.1056 145.513 76.5288 146.509 76.3871C146.944 76.3252 147.282 76.1687 147.522 75.9174C147.771 75.6551 147.873 75.3692 147.829 75.0597C147.781 74.7213 147.598 74.476 147.281 74.3238C146.963 74.1717 146.59 74.0768 146.16 74.0392C145.74 74.0003 145.314 73.9523 144.882 73.8954C144.458 73.8275 144.079 73.6594 143.744 73.3912C143.41 73.123 143.207 72.7326 143.134 72.2201C143.051 71.6398 143.217 71.1378 143.63 70.714C144.043 70.2902 144.642 70.0226 145.425 69.9112C146.073 69.819 146.672 69.9064 147.223 70.1734C147.773 70.4307 148.163 70.8143 148.393 71.3241L147.427 71.9203C147.278 71.5666 147.024 71.3019 146.663 71.1262C146.311 70.9395 145.937 70.8743 145.54 70.9307C145.125 70.9898 144.807 71.1188 144.589 71.3176C144.369 71.5067 144.28 71.7463 144.321 72.0364C144.356 72.2782 144.485 72.462 144.71 72.5878C144.945 72.7123 145.222 72.7864 145.541 72.8101C145.869 72.8227 146.224 72.8609 146.608 72.9247C146.991 72.9788 147.347 73.0516 147.675 73.143C148.004 73.2344 148.293 73.43 148.543 73.7299C148.801 74.0188 148.964 74.4002 149.031 74.874C149.122 75.5123 148.95 76.0696 148.514 76.5459C148.079 77.0222 147.46 77.3174 146.657 77.4315ZM156.06 68.3989C156.959 68.271 157.719 68.4144 158.341 68.8292C158.962 69.244 159.333 69.8721 159.452 70.7135L160.119 75.3989L158.9 75.5721L158.723 74.3246C158.569 74.7707 158.288 75.1511 157.879 75.4658C157.478 75.7695 157.011 75.9591 156.48 76.0347C155.754 76.1379 155.131 76.0242 154.611 75.6937C154.098 75.3522 153.797 74.8623 153.706 74.224C153.511 72.8508 154.557 71.8831 156.845 71.321L158.244 70.9593L158.223 70.8142C158.152 70.3113 157.931 69.9382 157.561 69.6949C157.199 69.4405 156.748 69.3518 156.206 69.4288C155.703 69.5003 155.307 69.6996 155.018 70.0268C154.729 70.354 154.596 70.7677 154.618 71.2678L153.441 71.2131C153.444 70.4727 153.685 69.8464 154.165 69.3342C154.654 68.8207 155.286 68.5089 156.06 68.3989ZM156.524 74.9925C157.23 74.8921 157.75 74.5961 158.085 74.1046C158.419 73.613 158.534 72.9998 158.43 72.2648L158.38 71.9167L156.981 72.2784C155.506 72.6559 154.824 73.2412 154.937 74.0342C154.985 74.3727 155.156 74.6346 155.448 74.8198C155.749 74.9941 156.108 75.0516 156.524 74.9925ZM165.534 68.3983C165.247 68.3207 164.924 68.3074 164.566 68.3583C163.948 68.4463 163.482 68.8183 163.171 69.4742C162.868 70.1191 162.798 71.0122 162.96 72.1533L163.356 74.9384L162.123 75.1138L161.084 67.8028L162.317 67.6275L162.527 69.1071C162.674 68.6126 162.939 68.1852 163.321 67.825C163.704 67.4647 164.123 67.2522 164.578 67.1876C164.897 67.1422 165.183 67.1458 165.437 67.1985L165.534 68.3983ZM173.384 69.4427C173.413 69.6458 173.43 69.8357 173.435 70.0125L167.662 70.8335C167.805 71.563 168.122 72.1247 168.612 72.5187C169.11 72.9017 169.688 73.0464 170.346 72.9529C170.907 72.8732 171.353 72.6814 171.685 72.3777C172.017 72.074 172.203 71.6874 172.245 71.2177L173.445 71.3283C173.361 72.0604 173.058 72.6659 172.534 73.1449C172.02 73.6226 171.342 73.9212 170.501 74.0409C169.427 74.1935 168.51 73.9539 167.749 73.3222C166.998 72.689 166.547 71.8405 166.396 70.7768C166.243 69.7033 166.435 68.7634 166.972 67.957C167.516 67.1396 168.325 66.6546 169.399 66.5019C170.453 66.352 171.347 66.5653 172.08 67.1418C172.812 67.7087 173.246 68.4756 173.384 69.4427ZM167.588 69.7933L172.012 69.1641C171.872 68.5922 171.583 68.1548 171.145 67.852C170.707 67.5492 170.174 67.4424 169.545 67.5318C168.975 67.613 168.516 67.8558 168.169 68.2603C167.821 68.6552 167.627 69.1662 167.588 69.7933ZM180.665 64.8998C181.69 64.7541 182.54 64.9045 183.215 65.3511C183.889 65.7881 184.298 66.5094 184.441 67.5151L185.057 71.8524L182.997 72.1453L182.865 71.217C182.698 71.5663 182.44 71.8646 182.09 72.1116C181.739 72.349 181.36 72.4965 180.954 72.5543C180.248 72.6547 179.638 72.5293 179.125 72.1781C178.611 71.8269 178.31 71.3418 178.222 70.7229C178.021 69.311 178.959 68.3439 181.036 67.8217L182.337 67.5034L182.331 67.4599C182.28 67.1021 182.124 66.8382 181.863 66.6681C181.611 66.487 181.286 66.4246 180.89 66.481C180.541 66.5305 180.266 66.6733 180.063 66.9094C179.859 67.1455 179.763 67.4403 179.774 67.794L177.868 67.7099C177.883 66.9874 178.155 66.3667 178.683 65.8476C179.211 65.3285 179.872 65.0126 180.665 64.8998ZM181.26 70.9569C181.724 70.8909 182.069 70.6791 182.294 70.3214C182.529 69.9624 182.62 69.5598 182.566 69.1136L182.564 69.0991L182.558 69.0556L182.55 68.9976L181.209 69.351C180.866 69.4392 180.609 69.5744 180.438 69.7567C180.276 69.9375 180.211 70.1392 180.243 70.3616C180.273 70.5743 180.375 70.7374 180.549 70.8508C180.733 70.9628 180.97 70.9982 181.26 70.9569ZM186.711 71.6172L185.672 64.3062L187.804 64.003L187.944 64.9894C188.314 64.1871 188.948 63.7219 189.847 63.594C190.94 63.4386 191.737 63.7693 192.238 64.586C192.397 64.1786 192.677 63.8231 193.078 63.5194C193.477 63.2061 193.957 63.0096 194.518 62.9298C195.301 62.8184 195.968 62.9604 196.517 63.3559C197.067 63.7513 197.392 64.302 197.492 65.0079L198.2 69.9835L196.082 70.2846L195.463 65.9329C195.405 65.5267 195.254 65.2275 195.01 65.0354C194.774 64.8321 194.467 64.7574 194.09 64.811C193.655 64.8729 193.336 65.0909 193.132 65.4652C192.939 65.838 192.884 66.3194 192.968 66.9093L193.5 70.6518L191.397 70.9509L190.778 66.5992C190.721 66.2027 190.57 65.9035 190.325 65.7017C190.088 65.4984 189.787 65.423 189.419 65.4752C188.984 65.5371 188.67 65.7593 188.478 66.1418C188.284 66.5147 188.229 66.9912 188.311 67.5715L188.844 71.314L186.711 71.6172ZM201.659 61.9144C202.684 61.7686 203.534 61.919 204.209 62.3657C204.883 62.8026 205.291 63.5239 205.434 64.5297L206.051 68.8669L203.991 69.1599L203.859 68.2315C203.692 68.5809 203.433 68.8791 203.084 69.1261C202.733 69.3635 202.354 69.5111 201.948 69.5688C201.242 69.6692 200.632 69.5438 200.119 69.1926C199.605 68.8414 199.304 68.3564 199.216 67.7374C199.015 66.3255 199.953 65.3585 202.03 64.8363L203.331 64.518L203.325 64.4745C203.274 64.1167 203.118 63.8527 202.857 63.6826C202.605 63.5015 202.28 63.4391 201.884 63.4955C201.535 63.545 201.26 63.6878 201.056 63.9239C200.853 64.16 200.757 64.4549 200.768 64.8085L198.862 64.7244C198.877 64.002 199.149 63.3812 199.677 62.8621C200.205 62.3431 200.866 62.0272 201.659 61.9144ZM202.254 67.9715C202.718 67.9054 203.063 67.6936 203.288 67.336C203.523 66.977 203.614 66.5744 203.56 66.1281L203.558 66.1136L203.552 66.0701L203.544 66.0121L202.203 66.3656C201.86 66.4538 201.603 66.589 201.432 66.7712C201.27 66.9521 201.205 67.1537 201.237 67.3761C201.267 67.5889 201.369 67.7519 201.543 67.8653C201.727 67.9773 201.964 68.0127 202.254 67.9715ZM207.299 68.6895L207.068 67.0649L210.21 62.6222L206.772 63.1111L206.52 61.3414L212.526 60.4874L212.757 62.1121L209.658 66.5485L213.43 66.0121L213.682 67.7819L207.299 68.6895ZM213.426 57.3404L215.674 57.0206L215.965 59.066L213.717 59.3857L213.426 57.3404ZM214.93 67.6044L213.89 60.2934L216.022 59.9902L217.062 67.3011L214.93 67.6044ZM218.712 67.0665L217.672 59.7555L219.805 59.4523L219.943 60.4242C220.333 59.6288 221.026 59.1602 222.022 59.0186C222.825 58.9044 223.507 59.0541 224.069 59.4674C224.631 59.8808 224.969 60.4889 225.083 61.2915L225.762 66.064L223.644 66.3651L223.046 62.1584C222.989 61.7619 222.828 61.4593 222.561 61.2505C222.303 61.0307 221.981 60.9483 221.594 61.0034C220.569 61.1491 220.167 62.0005 220.388 63.5575L220.844 66.7633L218.712 67.0665ZM231.23 57.8276L233.333 57.5285L234.298 64.3172C234.437 65.294 234.206 66.1309 233.605 66.8282C233.005 67.535 232.144 67.9683 231.022 68.1278C230.161 68.2502 229.382 68.144 228.683 67.8093C227.994 67.4731 227.538 66.9707 227.314 66.302L229.215 65.7209C229.304 66.0042 229.496 66.2087 229.79 66.3346C230.086 66.4702 230.417 66.5119 230.785 66.4596C231.278 66.3895 231.656 66.2025 231.919 65.8988C232.192 65.6033 232.3 65.2525 232.243 64.8464L232.144 64.1501C231.819 64.7094 231.226 65.0502 230.365 65.1726C229.33 65.3197 228.467 65.112 227.775 64.5493C227.084 63.9866 226.659 63.1541 226.503 62.0516C226.346 60.9492 226.516 60.032 227.014 59.3002C227.522 58.567 228.283 58.1282 229.298 57.9838C230.149 57.8628 230.823 58.0187 231.318 58.4513L231.23 57.8276ZM230.455 63.3098C230.958 63.2383 231.332 63.0224 231.577 62.662C231.83 62.2906 231.918 61.8341 231.841 61.2925C231.764 60.751 231.553 60.3419 231.208 60.0654C230.871 59.7779 230.451 59.6699 229.948 59.7414C229.455 59.8115 229.082 60.0323 228.829 60.4037C228.584 60.7641 228.5 61.2151 228.577 61.7566C228.654 62.2982 228.861 62.7127 229.198 63.0003C229.543 63.2768 229.962 63.38 230.455 63.3098Z" fill="white"/>
<path d="M102.656 94.0016C102.785 93.5549 103.378 93.4644 103.634 93.8524L105.343 96.4405C105.447 96.5986 105.626 96.6911 105.816 96.6848L108.915 96.5814C109.38 96.5659 109.649 97.102 109.359 97.4655L107.426 99.8904C107.308 100.039 107.275 100.237 107.34 100.416L108.396 103.331C108.554 103.769 108.128 104.19 107.692 104.027L104.789 102.938C104.611 102.871 104.412 102.902 104.262 103.018L101.816 104.923C101.449 105.209 100.916 104.934 100.937 104.469L101.075 101.371C101.084 101.182 100.994 101.002 100.837 100.895L98.2682 99.1573C97.8832 98.8967 97.9805 98.3046 98.4286 98.1809L101.418 97.3556C101.601 97.3051 101.744 97.1634 101.797 96.9814L102.656 94.0016Z" fill="#59D5BE"/>
<path d="M119.938 91.3649C120.067 90.9182 120.66 90.8277 120.916 91.2157L122.625 93.8037C122.729 93.9619 122.909 94.0544 123.098 94.0481L126.197 93.9447C126.662 93.9292 126.931 94.4653 126.642 94.8288L124.708 97.2537C124.59 97.4018 124.557 97.6007 124.622 97.7789L125.678 100.695C125.836 101.132 125.41 101.554 124.974 101.39L122.071 100.301C121.893 100.234 121.694 100.265 121.545 100.381L119.098 102.287C118.731 102.572 118.198 102.297 118.219 101.833L118.358 98.7343C118.366 98.5451 118.276 98.365 118.119 98.2588L115.55 96.5205C115.165 96.26 115.263 95.6679 115.711 95.5442L118.7 94.7188C118.883 94.6684 119.026 94.5267 119.079 94.3447L119.938 91.3649Z" fill="#59D5BE"/>
<path d="M137.219 88.7291C137.348 88.2824 137.941 88.1919 138.198 88.5799L139.906 91.168C140.011 91.3261 140.19 91.4186 140.379 91.4123L143.479 91.3089C143.943 91.2934 144.213 91.8296 143.923 92.1931L141.989 94.6179C141.871 94.7661 141.839 94.965 141.903 95.1431L142.959 98.059C143.118 98.4961 142.691 98.918 142.256 98.7547L139.352 97.6652C139.175 97.5987 138.975 97.6291 138.826 97.7455L136.379 99.651C136.012 99.9367 135.479 99.6612 135.5 99.1968L135.639 96.0986C135.647 95.9093 135.557 95.7292 135.4 95.623L132.832 93.8848C132.447 93.6242 132.544 93.0322 132.992 92.9084L135.982 92.0831C136.164 92.0327 136.307 91.891 136.36 91.7089L137.219 88.7291Z" fill="#59D5BE"/>
<path d="M154.5 86.0924C154.629 85.6457 155.222 85.5552 155.478 85.9432L157.187 88.5313C157.291 88.6894 157.47 88.7819 157.659 88.7756L160.759 88.6722C161.224 88.6567 161.493 89.1929 161.203 89.5564L159.27 91.9812C159.152 92.1294 159.119 92.3283 159.183 92.5064L160.24 95.4223C160.398 95.8594 159.971 96.2813 159.536 96.1179L156.632 95.0285C156.455 94.962 156.256 94.9923 156.106 95.1088L153.659 97.0143C153.293 97.2999 152.76 97.0245 152.78 96.56L152.919 93.4619C152.928 93.2726 152.837 93.0925 152.68 92.9863L150.112 91.2481C149.727 90.9875 149.824 90.3954 150.272 90.2717L153.262 89.4464C153.444 89.3959 153.588 89.2542 153.64 89.0722L154.5 86.0924Z" fill="#59D5BE"/>
<path d="M171.782 83.4567C171.911 83.01 172.504 82.9195 172.76 83.3075L174.469 85.8955C174.573 86.0537 174.752 86.1462 174.942 86.1399L178.041 86.0365C178.506 86.021 178.775 86.5571 178.485 86.9206L176.552 89.3455C176.434 89.4936 176.401 89.6925 176.466 89.8707L177.522 92.7866C177.68 93.2237 177.254 93.6455 176.818 93.4822L173.915 92.3928C173.737 92.3262 173.538 92.3566 173.388 92.473L170.942 94.3785C170.575 94.6642 170.042 94.3887 170.063 93.9243L170.201 90.8261C170.21 90.6369 170.119 90.4568 169.963 90.3506L167.394 88.6123C167.009 88.3518 167.106 87.7597 167.555 87.636L170.544 86.8106C170.727 86.7602 170.87 86.6185 170.922 86.4364L171.782 83.4567Z" fill="#59D5BE"/>
<defs>
<filter id="filter0_d_809_856" x="0.617003" y="0.774395" width="99.8299" height="99.8299" filterUnits="userSpaceOnUse" color-interpolation-filters="sRGB">
<feFlood flood-opacity="0" result="BackgroundImageFix"/>
<feColorMatrix in="SourceAlpha" type="matrix" values="0 0 0 0 0 0 0 0 0 0 0 0 0 0 0 0 0 0 127 0" result="hardAlpha"/>
<feOffset dx="0.915739" dy="10.0731"/>
<feGaussianBlur stdDeviation="8.24165"/>
<feColorMatrix type="matrix" values="0 0 0 0 0 0 0 0 0 0 0 0 0 0 0 0 0 0 0.09 0"/>
<feBlend mode="normal" in2="BackgroundImageFix" result="effect1_dropShadow_809_856"/>
<feBlend mode="normal" in="SourceGraphic" in2="effect1_dropShadow_809_856" result="shape"/>
</filter>
</defs>
</svg>
