<svg width="32" height="28" viewBox="0 0 32 28" fill="none" xmlns="http://www.w3.org/2000/svg">
<path d="M31.0281 18.38L21.4143 3.0096C20.2737 1.1286 18.2097 0 15.9828 0C13.7559 0 11.7462 1.1286 10.5513 3.0096L0.991789 18.38C0.937474 18.4875 0.828843 18.6488 0.774528 18.7562C0.774528 18.7562 0.774528 18.7562 0.720213 18.81C-0.257461 20.691 -0.257461 22.8944 0.828843 24.7754C1.96946 26.8177 4.03344 28 6.369 28H25.5966C27.9321 28 29.9961 26.8177 31.1367 24.7754C32.3317 22.7869 32.2773 20.3685 31.0281 18.38ZM12.6152 4.24568C13.3213 3.06334 14.6249 2.36468 15.9828 2.36468C17.3407 2.36468 18.6442 3.06334 19.3503 4.24568L21.5229 7.68522L15.9828 17.3589C14.5163 16.2303 11.7462 14.618 8.48729 14.7255C7.56393 14.7793 6.64057 14.9405 5.77153 15.263L12.6152 4.24568ZM29.0728 23.6468C28.3667 24.8829 27.0631 25.6353 25.5966 25.6353H6.369C4.90248 25.6353 3.59892 24.8829 2.89282 23.6468C2.29535 22.572 2.24104 21.3359 2.72988 20.2073C4.52228 18.2726 6.42331 17.2514 8.48729 17.1977C12.2894 17.0902 15.3853 20.0998 15.3853 20.0998L16.5259 21.2284L22.9351 10.0499L28.9641 19.6699C29.7788 20.9059 29.7789 22.357 29.0728 23.6468Z" fill="#59D4BE"/>
</svg>
