<svg width="186" height="121" viewBox="0 0 186 121" fill="none" xmlns="http://www.w3.org/2000/svg">
<path fill-rule="evenodd" clip-rule="evenodd" d="M176.336 70.9926C176.315 71.2574 176.283 71.5235 176.239 71.7904L172.667 93.4758C171.845 98.4661 167.133 101.845 162.143 101.023L64.5585 84.9481C59.5683 84.1261 56.1893 79.4143 57.0113 74.4241L60.5835 52.7386C61.4055 47.7484 66.1173 44.3694 71.1075 45.1914L168.692 61.2663C169.8 61.4489 170.829 61.8232 171.75 62.3497L184.166 57.924C185.024 57.6182 185.754 58.6163 185.202 59.3412L176.336 70.9926Z" fill="#447F86"/>
<path d="M105.946 36.4673C105.687 38.0085 104.978 39.1918 103.819 40.0173L104.689 41.3818L103.746 41.9514L102.84 40.5362C101.99 40.8787 101.079 40.9682 100.106 40.8047C98.6608 40.5618 97.548 39.8746 96.7676 38.743C95.9967 37.6131 95.7375 36.2967 95.9901 34.794C96.2427 33.2913 96.9179 32.132 98.0158 31.3162C99.1233 30.5019 100.4 30.2162 101.844 30.4591C103.28 30.7003 104.383 31.3859 105.154 32.5158C105.934 33.6474 106.198 34.9645 105.946 36.4673ZM100.29 39.6174C100.936 39.7259 101.553 39.6761 102.143 39.4682L100.53 36.9537L101.475 36.3696L103.112 38.9179C103.913 38.2799 104.409 37.3877 104.602 36.2414C104.796 35.0855 104.614 34.0744 104.057 33.208C103.501 32.3321 102.693 31.8051 101.633 31.627C100.583 31.4505 99.6524 31.6853 98.8406 32.3314C98.0304 32.9678 97.5282 33.8639 97.3339 35.0199C97.1396 36.1758 97.3213 37.1869 97.8789 38.0532C98.4366 38.9195 99.2404 39.4409 100.29 39.6174ZM112.803 41.8541C111.991 42.4407 111.046 42.6433 109.967 42.462C108.888 42.2807 108.061 41.7801 107.485 40.9604C106.912 40.131 106.716 39.172 106.899 38.0835C107.082 36.995 107.579 36.1575 108.391 35.5708C109.204 34.9746 110.151 34.7671 111.229 34.9484C112.308 35.1298 113.135 35.6351 113.708 36.4645C114.293 37.2859 114.494 38.2408 114.312 39.3293C114.129 40.4178 113.626 41.2594 112.803 41.8541ZM108.512 40.3307C108.882 40.8981 109.429 41.2424 110.151 41.3639C110.874 41.4853 111.503 41.3384 112.038 40.9232C112.575 40.4984 112.909 39.8959 113.04 39.1156C113.171 38.3354 113.052 37.6616 112.681 37.0942C112.313 36.5172 111.767 36.168 111.045 36.0466C110.322 35.9251 109.693 36.0768 109.156 36.5017C108.621 36.9168 108.287 37.5146 108.156 38.2948C108.025 39.0751 108.144 39.7537 108.512 40.3307ZM120.556 37.868C120.306 37.7071 120.002 37.5967 119.646 37.5367C119.03 37.4331 118.474 37.6468 117.978 38.1776C117.494 38.7004 117.157 39.5302 116.966 40.6669L116.499 43.4411L115.271 43.2347L116.495 35.9523L117.723 36.1587L117.476 37.6325C117.765 37.2058 118.147 36.8787 118.621 36.6513C119.095 36.424 119.559 36.3483 120.011 36.4244C120.329 36.4778 120.601 36.5681 120.827 36.6953L120.556 37.868ZM127.721 41.2413C127.687 41.4436 127.645 41.6298 127.597 41.8L121.846 40.8334C121.762 41.572 121.893 42.2033 122.241 42.7272C122.6 43.2432 123.107 43.5562 123.762 43.6663C124.321 43.7602 124.804 43.7127 125.212 43.5238C125.62 43.3348 125.916 43.0229 126.098 42.588L127.207 43.0568C126.906 43.7292 126.433 44.2143 125.789 44.5121C125.154 44.8116 124.418 44.8909 123.58 44.75C122.511 44.5703 121.709 44.0642 121.176 43.2316C120.652 42.4007 120.479 41.4554 120.657 40.3958C120.837 39.3266 121.304 38.489 122.06 37.883C122.827 37.269 123.745 37.0519 124.814 37.2316C125.864 37.408 126.651 37.882 127.175 38.6536C127.701 39.4154 127.882 40.278 127.721 41.2413ZM122.091 39.8197L126.498 40.5604C126.537 39.9727 126.394 39.4682 126.069 39.0471C125.743 38.6259 125.268 38.3627 124.641 38.2575C124.073 38.1619 123.562 38.2544 123.109 38.5348C122.657 38.8056 122.318 39.2338 122.091 39.8197ZM135.891 42.6144C135.857 42.8167 135.815 43.0029 135.767 43.1731L130.016 42.2066C129.932 42.9451 130.063 43.5764 130.411 44.1004C130.77 44.6163 131.277 44.9294 131.932 45.0394C132.491 45.1334 132.974 45.0858 133.382 44.8969C133.79 44.708 134.086 44.396 134.268 43.9611L135.377 44.4299C135.076 45.1024 134.603 45.5875 133.959 45.8853C133.324 46.1847 132.588 46.264 131.75 46.1231C130.681 45.9434 129.879 45.4373 129.346 44.6048C128.822 43.7738 128.649 42.8286 128.827 41.7689C129.007 40.6997 129.474 39.8621 130.23 39.2561C130.997 38.6421 131.915 38.425 132.984 38.6047C134.034 38.7812 134.821 39.2552 135.345 40.0267C135.871 40.7886 136.052 41.6512 135.891 42.6144ZM130.261 41.1928L134.668 41.9335C134.707 41.3458 134.564 40.8414 134.239 40.4202C133.913 39.999 133.438 39.7358 132.811 39.6306C132.243 39.5351 131.732 39.6275 131.279 39.9079C130.827 40.1787 130.488 40.607 130.261 41.1928ZM140.382 47.574C139.852 47.4849 139.385 47.2924 138.979 46.9964C138.573 46.7004 138.316 46.37 138.209 46.0053L138.032 47.0601L136.804 46.8537L138.523 36.6237L139.751 36.8301L139.081 40.8181C139.371 40.5102 139.75 40.2867 140.219 40.1476C140.698 40.0101 141.178 39.9819 141.66 40.0628C142.758 40.2474 143.556 40.7431 144.054 41.5499C144.554 42.3471 144.711 43.2996 144.525 44.4073C144.339 45.5151 143.873 46.368 143.129 46.9659C142.396 47.5559 141.48 47.7586 140.382 47.574ZM138.853 45.445C139.206 45.9995 139.738 46.3366 140.451 46.4564C141.164 46.5762 141.778 46.4317 142.292 46.023C142.808 45.6045 143.133 44.9956 143.268 44.196C143.402 43.3965 143.293 42.7195 142.941 42.165C142.59 41.6009 142.058 41.2589 141.345 41.1391C140.632 41.0193 140.018 41.1686 139.502 41.587C138.997 41.9974 138.677 42.6024 138.543 43.4019C138.409 44.2015 138.512 44.8825 138.853 45.445Z" fill="#44484F"/>
<mask id="mask0_806_734" style="mask-type:alpha" maskUnits="userSpaceOnUse" x="39" y="8" width="47" height="48">
<circle cx="62.3914" cy="31.8972" r="23.3514" fill="#C4C4C4"/>
</mask>
<g mask="url(#mask0_806_734)">
<path fill-rule="evenodd" clip-rule="evenodd" d="M58.4126 35.1014C56.8562 32.9925 55.8791 30.4732 56.262 27.7535C57.3652 19.9172 68.2061 22.4162 70.0606 26.5398C71.915 30.6635 70.9566 40.7275 68.1511 41.2452C67.0322 41.4516 64.7395 40.5939 62.457 38.9911L63.2128 49.677L54.3814 49.0595L58.4126 35.1014Z" fill="#915B3C"/>
<path fill-rule="evenodd" clip-rule="evenodd" d="M52.5949 24.8627C52.3294 24.5601 52.2021 24.1457 52.0942 23.7532C51.9823 23.3454 51.8746 22.9339 51.8108 22.5131C51.6832 21.6725 51.748 20.7206 52.3834 20.1192C52.8929 19.6369 53.6196 19.4555 54.2789 19.4511C54.7181 19.4481 55.1625 19.5407 55.5717 19.7076C55.9776 19.8733 56.3168 20.1705 56.7078 20.3676C56.7855 19.4768 57.0036 18.5542 57.5093 17.8243C57.996 17.122 58.7189 16.7593 59.5171 16.7058C60.3364 16.6509 61.1245 16.8968 61.8235 17.3405C61.9985 17.4516 62.1714 17.5673 62.3357 17.696C62.4732 17.8038 62.6151 17.9319 62.7818 17.9835C62.9675 18.041 63.0688 17.9385 63.2011 17.8093C63.3563 17.6578 63.5284 17.5269 63.7088 17.4127C64.5065 16.9081 65.5179 16.7484 66.3735 17.1442C66.7677 17.3265 67.1432 17.6156 67.3928 17.9952C67.6152 18.3336 67.7543 18.8554 68.0766 19.1029C68.2134 19.2079 68.3235 19.0891 68.4606 19.0052C68.6666 18.8791 68.8645 18.738 69.0725 18.6159C69.3648 18.4443 69.6767 18.3225 70.0053 18.2703C70.4863 18.1939 71.1386 18.2653 71.2306 18.8947C71.2652 19.1312 71.2088 19.3775 71.176 19.611C71.1309 19.9316 71.0849 20.252 71.0344 20.5718C70.9961 20.8145 70.9527 21.0486 70.8899 21.2852C70.8563 21.4114 70.7627 21.6444 70.8086 21.7762C70.8659 21.9411 71.1885 21.8722 71.3232 21.8872C71.5893 21.9169 71.854 21.9824 72.0928 22.1137C72.2778 22.2155 72.4698 22.3595 72.5352 22.5843C72.5754 22.7224 72.5526 22.8598 72.5195 22.9967C72.4798 23.161 72.5057 23.2514 72.515 23.4206C72.8858 23.2692 74.1552 22.9639 74.2665 23.6171C74.3036 23.8346 74.1682 24.068 74.0652 24.2421C73.8845 24.5473 73.6565 24.822 73.4247 25.0829C72.9412 25.6271 72.3774 26.0863 71.7783 26.4708C72.4247 26.814 72.5376 27.7009 71.9236 28.1817C71.6525 28.3939 71.3061 28.4212 70.9855 28.384C70.8681 28.3704 70.7016 28.3132 70.6075 28.3273C70.5569 28.3348 70.5005 28.3733 70.4311 28.3732C69.975 28.3726 69.4702 28.2274 69.0335 28.0956C68.2554 27.8608 67.533 27.4339 66.9616 26.8206C66.815 26.6632 66.6913 26.5699 66.4801 26.5573C66.295 26.5463 66.11 26.5843 65.9249 26.5761C65.4351 26.5544 65.0109 26.2845 64.5681 26.0937C64.4974 26.7051 64.2755 27.3684 63.986 27.9026C63.7499 28.3383 63.3181 28.3738 62.8955 28.3839C61.5441 28.4164 60.2066 28.1812 58.8622 28.089C60.1429 28.4742 61.4791 28.6894 62.7447 29.1258C63.3167 29.3229 62.8441 29.6847 62.5757 29.9397C62.1339 30.3595 61.7898 30.8939 61.5372 31.4646C60.9587 30.5903 59.8717 29.9649 58.8571 30.1501C57.736 30.3547 56.8562 31.79 57.4857 32.91C57.8511 33.5602 58.5727 33.8519 59.1685 34.1619C58.6543 34.6267 58.4869 35.3546 58.1551 35.9544C57.9914 36.2502 57.7675 36.5819 57.4418 36.6662C57.3214 36.6974 57.1831 36.6912 57.0835 36.7806C56.9601 36.8914 56.9234 37.0223 56.7694 37.1142C56.1546 37.4808 55.241 37.3853 54.7585 36.8171C54.3222 36.3032 54.4977 35.5505 54.9243 35.0902C54.3178 34.7861 53.203 34.3716 53.5193 33.4156C52.1719 33.2311 49.0385 30.8057 50.9677 29.3284C50.0099 28.6951 49.1901 27.2538 49.9155 26.0845C50.4741 25.1841 51.6504 24.8464 52.5949 24.8627Z" fill="#191847"/>
<path fill-rule="evenodd" clip-rule="evenodd" d="M82.5914 78.9672C84.1012 79.1231 85.6793 79.656 87.3148 80.5484C88.1195 80.9876 88.4159 81.9959 87.9767 82.8007C87.7217 83.268 87.2746 83.564 86.787 83.6439C87.0769 83.9453 87.37 84.2458 87.6663 84.5455L83.6907 89.9979C72.4708 81.6953 61.7241 75.0323 58.2409 63.9774C57.0719 60.2671 59.7059 48.8286 60.2776 44.5992L64.4438 43.6909C67.8856 55.8407 73.3213 67.8732 82.5914 78.9672Z" fill="#69A1AC"/>
<path fill-rule="evenodd" clip-rule="evenodd" d="M39.7453 81.2371C50.9446 84.5055 59.9339 86.0905 66.7131 85.9922C67.553 85.9801 68.1349 82.4713 67.9267 81.4483C64.6857 65.5177 62.7488 53.9325 64.5731 43.5861C63.3973 43.9586 61.4983 43.7107 58.876 42.8422C49.7618 52.229 44.2794 63.8765 39.7453 81.2371Z" fill="#191847"/>
<path fill-rule="evenodd" clip-rule="evenodd" d="M37.3127 82.6233C36.9892 82.19 36.8834 81.6073 37.0822 81.0612L37.4607 80.0213C37.7172 79.3166 38.4013 78.8911 39.1133 78.9312C39.3313 78.4077 39.5319 77.8849 39.7135 77.3628C41.2472 72.9527 40.7791 68.2806 41.6087 63.92C34.8885 67.8739 28.1308 75.5556 21.3358 86.9653L14.8307 83.7366C15.264 82.8102 15.7046 81.8974 16.1524 80.9982C15.4398 80.4087 14.878 78.1836 15.6048 77.956C16.3555 77.7209 17.1283 77.5986 17.9217 77.5862C27.5536 59.7476 40.2846 47.7042 56.1145 41.4561L57.3783 41.6789L60.2459 42.1846C56.1932 58.056 66.8019 96.1373 55.6796 125.101C44.4721 125.608 30.3993 115.402 14.3593 118.745C17.0466 106.765 30.7175 94.545 37.3127 82.6233L37.3127 82.6233Z" fill="#89C5CC"/>
<path fill-rule="evenodd" clip-rule="evenodd" d="M57.5503 42.0849L54.6599 47.5178L57.6722 52.5039L53.6627 55.2978L59.4232 70.882L51.8184 55.0017L55.7723 52.1689L53.0954 47.76L57.5503 42.0849Z" fill="black" fill-opacity="0.1"/>
</g>
<path d="M87.3372 75.6519L88.9613 65.525L90.2778 65.7362L88.6537 75.863L87.3372 75.6519ZM91.2595 68.713L92.5001 65.9739L94.077 66.2268L92.0986 68.8476L91.2595 68.713ZM93.2978 76.6079L94.4672 69.3165L95.6969 69.5137L95.4764 70.8881C96.0505 69.9612 96.8631 69.582 97.9144 69.7506C98.5124 69.8465 99.0019 70.0636 99.3829 70.4017C99.7736 70.7413 99.993 71.1623 100.041 71.6647C100.316 71.2438 100.684 70.9268 101.143 70.7137C101.614 70.4924 102.115 70.4243 102.645 70.5093C103.426 70.6346 104.007 70.9603 104.388 71.4863C104.778 72.0138 104.911 72.6634 104.788 73.4349L104.003 78.3248L102.774 78.1276L103.518 73.4837C103.6 72.9725 103.526 72.545 103.294 72.2012C103.064 71.8477 102.698 71.6307 102.196 71.5503C101.589 71.4528 101.077 71.623 100.66 72.0607C100.244 72.4985 99.972 73.1128 99.8452 73.9036L99.2582 77.5638L98.0285 77.3665L98.7733 72.7227C98.8552 72.2115 98.7804 71.784 98.5486 71.4401C98.3281 71.0882 97.967 70.872 97.4655 70.7916C96.8579 70.6941 96.3459 70.8643 95.9294 71.302C95.513 71.7398 95.2413 72.3541 95.1145 73.1449L94.5275 76.8051L93.2978 76.6079ZM109.546 79.2137L111.17 69.0869L114.179 69.5694C115.645 69.8046 116.784 70.4472 117.595 71.4972C118.416 72.5489 118.699 73.8655 118.445 75.4473C118.192 77.029 117.511 78.191 116.402 78.9333C115.304 79.6771 114.021 79.9314 112.555 79.6963L109.546 79.2137ZM111.039 78.2362L112.702 78.5031C113.773 78.6748 114.717 78.4947 115.534 77.963C116.361 77.4328 116.878 76.5215 117.085 75.2292C117.226 74.3515 117.161 73.5843 116.891 72.9276C116.631 72.2627 116.247 71.7608 115.737 71.4219C115.229 71.0733 114.633 70.8441 113.948 70.7343L112.284 70.4675L111.039 78.2362ZM125.319 80.7788C124.512 81.3715 123.568 81.5812 122.488 81.408C121.408 81.2347 120.577 80.7404 119.995 79.925C119.415 79.0999 119.213 78.1425 119.388 77.0526C119.562 75.9628 120.053 75.1215 120.861 74.5288C121.67 73.9265 122.614 73.7119 123.694 73.8852C124.775 74.0584 125.605 74.5576 126.185 75.3826C126.776 76.1996 126.984 77.153 126.809 78.2429C126.634 79.3327 126.138 80.178 125.319 80.7788ZM121.018 79.2876C121.392 79.8522 121.941 80.1925 122.664 80.3085C123.388 80.4245 124.015 80.2729 124.548 79.8537C125.081 79.4249 125.411 78.8199 125.536 78.0387C125.661 77.2575 125.537 76.5846 125.162 76.02C124.79 75.4458 124.241 75.1007 123.518 74.9847C122.795 74.8686 122.166 75.0251 121.632 75.4539C121.1 75.8731 120.772 76.4733 120.646 77.2545C120.521 78.0357 120.645 78.7134 121.018 79.2876ZM127.798 82.1409L128.967 74.8496L130.197 75.0468L129.977 76.4211C130.31 76.0096 130.715 75.7036 131.192 75.5032C131.67 75.3027 132.178 75.2458 132.719 75.3324C133.48 75.4546 134.065 75.7907 134.471 76.3406C134.887 76.8921 135.033 77.5536 134.91 78.3252L134.135 83.1571L132.905 82.9599L133.643 78.3594C133.723 77.8579 133.639 77.4289 133.389 77.0723C133.141 76.7061 132.767 76.4827 132.265 76.4023C131.58 76.2925 130.99 76.4848 130.496 76.9792C130.012 77.4655 129.694 78.1861 129.541 79.1409L129.028 82.3381L127.798 82.1409ZM143.369 80.5573C143.336 80.7598 143.296 80.9464 143.249 81.1169L137.491 80.1934C137.412 80.9326 137.549 81.5629 137.9 82.0843C138.263 82.5975 138.773 82.9067 139.428 83.0119C139.988 83.1016 140.471 83.0505 140.877 82.8585C141.284 82.6665 141.577 82.3524 141.756 81.9161L142.869 82.3766C142.573 83.0513 142.104 83.5399 141.462 83.8425C140.829 84.1467 140.093 84.2315 139.254 84.0969C138.184 83.9252 137.379 83.4251 136.839 82.5966C136.309 81.7696 136.129 80.8257 136.299 79.7648C136.47 78.6942 136.932 77.8531 137.683 77.2415C138.445 76.6218 139.361 76.3978 140.432 76.5695C141.483 76.7381 142.274 77.2062 142.804 77.9737C143.335 78.7316 143.523 79.5928 143.369 80.5573ZM137.728 79.1779L142.141 79.8855C142.176 79.2976 142.029 78.7942 141.7 78.3755C141.372 77.9568 140.894 77.6972 140.267 77.5966C139.698 77.5054 139.188 77.6016 138.737 77.8854C138.287 78.1596 137.951 78.5904 137.728 79.1779Z" fill="white"/>
<g filter="url(#filter0_d_806_734)">
<circle cx="62.3914" cy="31.8972" r="23.3514" fill="#DEF4F7"/>
<circle cx="62.3914" cy="31.8972" r="24.2671" stroke="white" stroke-width="1.83148"/>
</g>
<mask id="mask1_806_734" style="mask-type:alpha" maskUnits="userSpaceOnUse" x="39" y="8" width="47" height="48">
<circle cx="62.3914" cy="31.8972" r="23.3514" fill="#C4C4C4"/>
</mask>
<g mask="url(#mask1_806_734)">
<path fill-rule="evenodd" clip-rule="evenodd" d="M58.4126 35.1014C56.8562 32.9925 55.8791 30.4732 56.262 27.7535C57.3652 19.9172 68.2061 22.4162 70.0606 26.5398C71.915 30.6635 70.9566 40.7275 68.1511 41.2452C67.0322 41.4516 64.7395 40.5939 62.457 38.9911L63.2128 49.677L54.3814 49.0595L58.4126 35.1014Z" fill="#915B3C"/>
<path fill-rule="evenodd" clip-rule="evenodd" d="M52.5949 24.8627C52.3294 24.5601 52.2021 24.1457 52.0942 23.7532C51.9823 23.3454 51.8746 22.9339 51.8108 22.5131C51.6832 21.6725 51.748 20.7206 52.3834 20.1192C52.8929 19.6369 53.6196 19.4555 54.2789 19.4511C54.7181 19.4481 55.1625 19.5407 55.5717 19.7076C55.9776 19.8733 56.3168 20.1705 56.7078 20.3676C56.7855 19.4768 57.0036 18.5542 57.5093 17.8243C57.996 17.122 58.7189 16.7593 59.5171 16.7058C60.3364 16.6509 61.1245 16.8968 61.8235 17.3405C61.9985 17.4516 62.1714 17.5673 62.3357 17.696C62.4732 17.8038 62.6151 17.9319 62.7818 17.9835C62.9675 18.041 63.0688 17.9385 63.2011 17.8093C63.3563 17.6578 63.5284 17.5269 63.7088 17.4127C64.5065 16.9081 65.5179 16.7484 66.3735 17.1442C66.7677 17.3265 67.1432 17.6156 67.3928 17.9952C67.6152 18.3336 67.7543 18.8554 68.0766 19.1029C68.2134 19.2079 68.3235 19.0891 68.4606 19.0052C68.6666 18.8791 68.8645 18.738 69.0725 18.6159C69.3648 18.4443 69.6767 18.3225 70.0053 18.2703C70.4863 18.1939 71.1386 18.2653 71.2306 18.8947C71.2652 19.1312 71.2088 19.3775 71.176 19.611C71.1309 19.9316 71.0849 20.252 71.0344 20.5718C70.9961 20.8145 70.9527 21.0486 70.8899 21.2852C70.8563 21.4114 70.7627 21.6444 70.8086 21.7762C70.8659 21.9411 71.1885 21.8722 71.3232 21.8872C71.5893 21.9169 71.854 21.9824 72.0928 22.1137C72.2778 22.2155 72.4698 22.3595 72.5352 22.5843C72.5754 22.7224 72.5526 22.8598 72.5195 22.9967C72.4798 23.161 72.5057 23.2514 72.515 23.4206C72.8858 23.2692 74.1552 22.9639 74.2665 23.6171C74.3036 23.8346 74.1682 24.068 74.0652 24.2421C73.8845 24.5473 73.6565 24.822 73.4247 25.0829C72.9412 25.6271 72.3774 26.0863 71.7783 26.4708C72.4247 26.814 72.5376 27.7009 71.9236 28.1817C71.6525 28.3939 71.3061 28.4212 70.9855 28.384C70.8681 28.3704 70.7016 28.3132 70.6075 28.3273C70.5569 28.3348 70.5005 28.3733 70.4311 28.3732C69.975 28.3726 69.4702 28.2274 69.0335 28.0956C68.2554 27.8608 67.533 27.4339 66.9616 26.8206C66.815 26.6632 66.6913 26.5699 66.4801 26.5573C66.295 26.5463 66.11 26.5843 65.9249 26.5761C65.4351 26.5544 65.0109 26.2845 64.5681 26.0937C64.4974 26.7051 64.2755 27.3684 63.986 27.9026C63.7499 28.3383 63.3181 28.3738 62.8955 28.3839C61.5441 28.4164 60.2066 28.1812 58.8622 28.089C60.1429 28.4742 61.4791 28.6894 62.7447 29.1258C63.3167 29.3229 62.8441 29.6847 62.5757 29.9397C62.1339 30.3595 61.7898 30.8939 61.5372 31.4646C60.9587 30.5903 59.8717 29.9649 58.8571 30.1501C57.736 30.3547 56.8562 31.79 57.4857 32.91C57.8511 33.5602 58.5727 33.8519 59.1685 34.1619C58.6543 34.6267 58.4869 35.3546 58.1551 35.9544C57.9914 36.2502 57.7675 36.5819 57.4418 36.6662C57.3214 36.6974 57.1831 36.6912 57.0835 36.7806C56.9601 36.8914 56.9234 37.0223 56.7694 37.1142C56.1546 37.4808 55.241 37.3853 54.7585 36.8171C54.3222 36.3032 54.4977 35.5505 54.9243 35.0902C54.3178 34.7861 53.203 34.3716 53.5193 33.4156C52.1719 33.2311 49.0385 30.8057 50.9677 29.3284C50.0099 28.6951 49.1901 27.2538 49.9155 26.0845C50.4741 25.1841 51.6504 24.8464 52.5949 24.8627Z" fill="#191847"/>
<path fill-rule="evenodd" clip-rule="evenodd" d="M82.5914 78.9672C84.1012 79.1231 85.6793 79.656 87.3148 80.5484C88.1195 80.9876 88.4159 81.9959 87.9767 82.8007C87.7217 83.268 87.2746 83.564 86.787 83.6439C87.0769 83.9453 87.37 84.2458 87.6663 84.5455L83.6907 89.9979C72.4708 81.6953 61.7241 75.0323 58.2409 63.9774C57.0719 60.2671 59.7059 48.8286 60.2776 44.5992L64.4438 43.6909C67.8856 55.8407 73.3213 67.8732 82.5914 78.9672Z" fill="#69A1AC"/>
<path fill-rule="evenodd" clip-rule="evenodd" d="M39.7453 81.2371C50.9446 84.5055 59.9339 86.0905 66.7131 85.9922C67.553 85.9801 68.1349 82.4713 67.9267 81.4483C64.6857 65.5177 62.7488 53.9325 64.5731 43.5861C63.3973 43.9586 61.4983 43.7107 58.876 42.8422C49.7618 52.229 44.2794 63.8765 39.7453 81.2371Z" fill="#191847"/>
<path fill-rule="evenodd" clip-rule="evenodd" d="M37.3127 82.6233C36.9892 82.19 36.8834 81.6073 37.0822 81.0612L37.4607 80.0213C37.7172 79.3166 38.4013 78.8911 39.1133 78.9312C39.3313 78.4077 39.5319 77.8849 39.7135 77.3628C41.2472 72.9527 40.7791 68.2806 41.6087 63.92C34.8885 67.8739 28.1308 75.5556 21.3358 86.9653L14.8307 83.7366C15.264 82.8102 15.7046 81.8974 16.1524 80.9982C15.4398 80.4087 14.878 78.1836 15.6048 77.956C16.3555 77.7209 17.1283 77.5986 17.9217 77.5862C27.5536 59.7476 40.2846 47.7042 56.1145 41.4561L57.3783 41.6789L60.2459 42.1846C56.1932 58.056 66.8019 96.1373 55.6796 125.101C44.4721 125.608 30.3993 115.402 14.3593 118.745C17.0466 106.765 30.7175 94.545 37.3127 82.6233L37.3127 82.6233Z" fill="#89C5CC"/>
<path fill-rule="evenodd" clip-rule="evenodd" d="M57.5503 42.0849L54.6599 47.5178L57.6722 52.5039L53.6627 55.2978L59.4232 70.882L51.8184 55.0017L55.7723 52.1689L53.0954 47.76L57.5503 42.0849Z" fill="black" fill-opacity="0.1"/>
</g>
<defs>
<filter id="filter0_d_806_734" x="21.6414" y="0.304668" width="83.3318" height="83.3318" filterUnits="userSpaceOnUse" color-interpolation-filters="sRGB">
<feFlood flood-opacity="0" result="BackgroundImageFix"/>
<feColorMatrix in="SourceAlpha" type="matrix" values="0 0 0 0 0 0 0 0 0 0 0 0 0 0 0 0 0 0 127 0" result="hardAlpha"/>
<feOffset dx="0.915739" dy="10.0731"/>
<feGaussianBlur stdDeviation="8.24165"/>
<feColorMatrix type="matrix" values="0 0 0 0 0 0 0 0 0 0 0 0 0 0 0 0 0 0 0.09 0"/>
<feBlend mode="normal" in2="BackgroundImageFix" result="effect1_dropShadow_806_734"/>
<feBlend mode="normal" in="SourceGraphic" in2="effect1_dropShadow_806_734" result="shape"/>
</filter>
</defs>
</svg>
