<svg width="712" height="550" viewBox="0 0 712 550" fill="none" xmlns="http://www.w3.org/2000/svg">
<rect width="712" height="550" fill="#59D4BE"/>
<mask id="mask0_1456_311" style="mask-type:alpha" maskUnits="userSpaceOnUse" x="0" y="0" width="712" height="550">
<rect width="712" height="550" fill="#33335E"/>
</mask>
<g mask="url(#mask0_1456_311)">
<path fill-rule="evenodd" clip-rule="evenodd" d="M338.537 484.067C328.112 476.95 319.696 467.059 317.192 454.12C309.979 416.84 363.52 411.12 378.463 426.907C393.407 442.695 404.77 489.853 392.736 496.615C387.937 499.312 376.098 499.028 363.141 495.348L383.324 542.631L341.927 553.723L338.537 484.067Z" fill="#B28B67"/>
<path fill-rule="evenodd" clip-rule="evenodd" d="M352.909 448.881C360.356 470.335 367.479 480.151 374.278 478.329C384.477 475.596 391.41 466.86 395.885 465.661C399.148 464.787 399.503 469.028 398.145 472.608C397.024 475.561 388.975 480.274 390.004 484.111C391.032 487.949 397.1 483.141 397.71 485.417C398.719 489.181 401.822 495.935 395.23 497.702C388.559 499.489 368.786 502.205 362.879 493.269C359.066 487.503 354.182 474.746 348.226 454.998C347.808 455.058 347.39 455.144 346.972 455.256C341.257 456.788 337.854 462.622 339.372 468.287C340.142 471.163 342.033 473.443 344.456 474.79C342.959 478.781 341.213 483 339.105 487.436C325.711 483.661 311.749 465.847 317.867 443.5C318.453 433.199 324.166 426.25 331.885 421.666C337.895 417.051 344.83 414.854 351.205 414.947C363.085 412.822 374.398 413.553 377.896 414.851C380.816 425.75 379.552 429.554 361.276 434.146C357.432 437.685 355.074 442.637 352.909 448.881Z" fill="#191847"/>
<path fill-rule="evenodd" clip-rule="evenodd" d="M361.029 524.428L375.778 519.151C440.752 557.703 480.356 646.791 558.218 683.955L545.193 707.422C422.607 713.796 372.83 605.388 361.029 524.428Z" fill="#E87613"/>
<path fill-rule="evenodd" clip-rule="evenodd" d="M328.268 726.28C389.242 715.528 434.093 707.62 462.821 702.554C468.97 701.47 466.253 692.84 464.579 688.539C445.249 638.898 395.428 590.499 382.514 517.263L342.635 518.05C319.592 575.086 319.643 640.298 328.268 726.28Z" fill="#DDE3E9"/>
<path fill-rule="evenodd" clip-rule="evenodd" d="M303.078 577.095C297.157 576.476 292.03 573.503 287.697 568.175C269.021 545.205 271.671 530.279 286.018 522.996C300.365 515.713 315.559 522.824 339.713 518.565C341.027 518.334 342.245 518.203 343.366 518.175L355.638 516.722C411.227 628.137 434.671 704.878 425.971 746.943L320.067 765.617C316.36 781.282 312.515 794.591 308.534 805.542L279.677 810.63C261.554 723.729 269.354 645.884 303.078 577.095Z" fill="#FF9B21"/>
<path fill-rule="evenodd" clip-rule="evenodd" d="M75.2774 180.128C86.4018 174.162 99.0597 171.258 111.694 175.006C148.099 185.805 128.473 235.947 107.572 241.922C86.6708 247.896 39.5885 236.222 39.1409 222.426C38.9624 216.924 44.6755 206.551 53.9184 196.752L2.65637 192.847L11.913 151.001L75.2774 180.128Z" fill="#B28B67"/>
<path fill-rule="evenodd" clip-rule="evenodd" d="M99.8649 209.111C77.3951 205.821 65.4 207.612 63.8797 214.485C61.5992 224.794 66.1512 234.976 65.1506 239.499C64.4211 242.797 60.494 241.156 57.945 238.299C55.8421 235.943 55.3732 226.627 51.4945 225.769C47.6157 224.911 49.0816 232.514 46.7812 232.005C42.9761 231.163 35.5519 230.8 37.0259 224.137C38.5176 217.393 45.2302 198.597 55.8829 197.478C62.7579 196.756 76.3298 198.308 96.5986 202.134C96.7373 201.736 96.8541 201.325 96.9475 200.903C98.2256 195.125 94.6194 189.414 88.8928 188.148C85.9856 187.505 83.0909 188.13 80.778 189.658C77.927 186.489 74.9894 182.993 72.0267 179.077C81.5547 168.935 103.801 164.766 120.805 180.503C129.674 185.776 133.204 194.05 133.71 203.013C135.032 210.475 133.782 217.641 130.758 223.255C127.163 234.775 121.295 244.474 118.53 246.98C107.513 244.542 104.72 241.665 109.078 223.333C107.712 218.289 104.406 213.912 99.8649 209.111Z" fill="#191847"/>
<path fill-rule="evenodd" clip-rule="evenodd" d="M29.0901 181.462L26.9675 196.983C-37.2114 236.844 -134.524 230.881 -203.418 282.818L-218.229 260.435C-167.33 148.734 -48.1842 154.582 29.0901 181.462Z" fill="#E87613"/>
<path fill-rule="evenodd" clip-rule="evenodd" d="M-134.885 59.276C-153.475 118.334 -167.15 161.775 -175.909 189.601C-177.784 195.556 -168.874 197.127 -164.285 197.626C-111.326 203.377 -45.4005 181.502 25.5342 203.832L43.2334 168.087C3.26036 121.329 -54.6205 91.2909 -134.885 59.276Z" fill="#DDE3E9"/>
<path fill-rule="evenodd" clip-rule="evenodd" d="M9.09663 105.75C12.377 100.782 17.3803 97.6052 24.1065 96.2194C53.1018 90.2454 65.1225 99.4832 64.965 115.572C64.8075 131.661 51.4889 141.861 44.1245 165.256C43.7239 166.528 43.2777 167.669 42.7858 168.677L38.4131 180.235C-86.0826 178.155 -164.984 163.552 -198.292 136.427L-166.002 33.8513C-178.191 23.3348 -188.225 13.7843 -196.104 5.19985L-187.306 -22.7502C-101.844 1.261 -36.3767 44.0945 9.09663 105.75Z" fill="#FF9B21"/>
<path fill-rule="evenodd" clip-rule="evenodd" d="M87.2347 429.571C84.2397 417.728 84.4684 405.136 90.9174 394.078C109.499 362.217 151.86 392.12 152.587 413.181C153.314 434.242 131.428 475.969 118.411 473.254C113.22 472.171 104.842 464.427 97.8222 453.486L82.2341 500.92L45.2233 482.678L87.2347 429.571Z" fill="#B28B67"/>
<path fill-rule="evenodd" clip-rule="evenodd" d="M135.074 407.552C128.667 407.886 122.498 411.389 114.792 416.174C113.947 415.245 112.917 414.457 111.723 413.868C106.613 411.349 100.429 413.45 97.9102 418.56C96.6317 421.154 96.5436 424.025 97.4353 426.553C93.8049 428.52 89.8496 430.494 85.4947 432.396C78.2684 421.184 79.4797 399.481 97.8127 386.99C123.341 356.452 160.489 401.525 172.562 400.203C168.365 413.783 156.884 420.741 135.074 407.552Z" fill="#191847"/>
<path fill-rule="evenodd" clip-rule="evenodd" d="M-37.4931 608.311C-71.4791 675.234 -127.905 760.076 -131.851 763.347C-134.482 765.527 -195.236 779.802 -314.113 806.17L-307.588 827.75C-178.19 818.685 -109.24 811.39 -100.736 805.865C-87.9801 797.579 -12.0883 700.881 37.8908 645.466L-37.4931 608.311Z" fill="#B28B67"/>
<path fill-rule="evenodd" clip-rule="evenodd" d="M-282.65 792.051L-256.604 896.864C-155.309 857.4 -93.7909 829.395 -72.0486 812.847C-50.3062 796.3 -11.1929 741.722 45.2916 649.114L-50.8144 601.746C-97.5982 684.652 -122.797 727.68 -126.411 730.83C-130.025 733.98 -182.105 754.387 -282.65 792.051Z" fill="#89C5CC"/>
<path fill-rule="evenodd" clip-rule="evenodd" d="M126.074 665.76L149.744 732.025C160.177 744.113 167.94 755.609 173.034 766.514C173.809 769.717 173.727 775.083 165.775 768.744C157.823 762.406 149.173 756.093 146.079 758.147C142.985 760.201 145.746 767.046 140.793 769.289C137.491 770.784 134.489 759.372 131.788 735.053L98.2665 684.219L126.074 665.76ZM-75.9517 516.773L-40.9829 534.171C-109.998 606.91 -146.327 644.9 -149.969 648.141C-158.164 655.431 -157.172 673.175 -157.499 682.287C-170.801 681.76 -160.784 664.368 -177.684 663.946C-193.11 663.561 -207.853 669.373 -217.982 653.321C-219.227 651.347 -219.153 646.264 -212.841 645.374C-197.117 643.156 -173.236 637.481 -168.667 633.991C-162.436 629.231 -131.531 590.159 -75.9517 516.773Z" fill="#B28B67"/>
<path fill-rule="evenodd" clip-rule="evenodd" d="M79.4665 470.648L94.4628 475.109C78.5314 562.391 164.79 669.752 157.561 701.753C154.91 713.489 144.695 715.047 147.046 720.178L122.618 724.394C121.313 719.363 111.632 722.617 100.288 711.412C88.944 700.207 34.7973 561.279 79.4665 470.648Z" fill="#DB2721"/>
<path fill-rule="evenodd" clip-rule="evenodd" d="M97.7236 492.293C46.1841 592.841 92.4027 647.749 59.2343 681.927C31.8443 710.151 -89.7439 695.077 -91.488 653.318C-92.194 636.415 -87.5531 618.68 -79.2951 600.981C-90.5178 612.174 -99.8578 621.968 -107.315 630.363C-120.18 644.846 -139.355 638.706 -142.537 645.16L-162.889 627.107C-156.971 619.125 -165.961 609.387 -153.331 591.264C-96.7429 510.061 -29.5743 464.088 48.1744 453.345L53.1075 444.891C55.0258 441.615 59.2331 440.507 62.5163 442.411L104.577 466.903C107.862 468.808 108.974 473.018 107.062 476.301C107.061 476.302 107.06 476.304 107.054 476.303L97.7236 492.293Z" fill="#FF4133"/>
<path fill-rule="evenodd" clip-rule="evenodd" d="M307.797 70.9556C319.301 75.0646 329.632 82.2681 335.224 93.7831C351.336 126.961 302.907 145.489 285.011 134.362C267.114 123.235 244.648 81.8169 254.153 72.5185C257.944 68.8104 269.042 66.1651 282.039 66.4291L251.325 27.0631L287.09 6.48464L307.797 70.9556Z" fill="#B28B67"/>
<path fill-rule="evenodd" clip-rule="evenodd" d="M299.439 122.95C302.731 117.443 303.258 110.369 303.576 101.304C304.817 101.119 306.046 100.703 307.2 100.039C312.138 97.1977 313.838 90.8913 310.996 85.9533C309.554 83.4465 307.219 81.7742 304.623 81.1069C305.011 76.9964 305.574 72.6118 306.42 67.9354C319.758 68.1789 337.107 81.2726 337.271 103.456C348.415 141.667 290.29 147.415 284.663 158.178C275.723 147.129 276.339 133.718 299.439 122.95Z" fill="#191847"/>
<path fill-rule="evenodd" clip-rule="evenodd" d="M90.005 -28.3395L21.786 -45.5886C5.93597 -43.6569 -7.9359 -43.6125 -19.8297 -45.4553C-22.9222 -46.5957 -27.3332 -49.6522 -17.6394 -52.7264C-7.9457 -55.8007 2.11437 -59.4681 2.13185 -63.1819C2.14935 -66.8957 -5.07311 -68.4153 -4.17722 -73.7781C-3.57993 -77.3532 7.56981 -73.49 29.272 -62.1884L90.1622 -61.7155L90.005 -28.3395ZM326.265 -113.146L292.34 -93.7935C270.367 -191.627 259.05 -242.958 258.387 -247.788C256.896 -258.655 241.607 -267.714 234.221 -273.06C242.068 -283.815 250.933 -265.808 260.696 -279.609C269.608 -292.206 272.992 -307.688 291.966 -307.16C294.299 -307.095 298.479 -304.202 295.703 -298.464C288.787 -284.17 280.199 -261.175 280.553 -255.436C281.035 -247.61 296.273 -200.18 326.265 -113.146Z" fill="#B28B67"/>
<path fill-rule="evenodd" clip-rule="evenodd" d="M278.011 41.623L265.954 51.5932C202.337 -10.2521 65.1263 1.59055 42.5748 -22.2366C34.3046 -30.9746 38.7001 -40.3265 33.129 -41.2319L43.2334 -63.8682C48.1386 -62.1503 50.8277 -72.0029 66.4523 -75.1836C82.0768 -78.3643 227.619 -45.955 278.011 41.623Z" fill="#35A994"/>
<path fill-rule="evenodd" clip-rule="evenodd" d="M249.865 44.7293C195.064 -54.0785 123.718 -46.2748 113.806 -92.8586C105.621 -131.327 185.862 -223.913 221.516 -202.103C235.948 -193.275 248.092 -179.542 258.192 -162.826C255.147 -178.381 252.215 -191.593 249.396 -202.463C244.533 -221.215 260.313 -233.72 256.724 -239.957L283.054 -246.805C286.386 -237.444 299.481 -239.487 307.499 -218.903C343.421 -126.677 344.192 -45.286 309.811 25.2704L314.085 34.0764C315.737 37.4938 314.314 41.6056 310.904 43.2716L267.136 64.5631C263.723 66.2302 259.608 64.8084 257.946 61.393C257.945 61.3911 257.945 61.3893 257.949 61.3847L249.865 44.7293Z" fill="#6AFFE4"/>
<path fill-rule="evenodd" clip-rule="evenodd" d="M610.722 445.454C600.5 439.734 591.88 431.275 588.43 419.496C578.487 385.556 627.232 375.761 642.379 389.136C657.526 402.511 672.162 445.255 661.692 452.531C657.517 455.433 646.601 456.164 634.355 453.841L657.117 495.961L620.019 509.714L610.722 445.454Z" fill="#C9AC9B"/>
<path fill-rule="evenodd" clip-rule="evenodd" d="M620.984 376.384C615.342 376.717 607.789 378.921 604.825 380.424C605.022 375.552 603.978 370.592 601.712 366.227C599.509 361.985 596.118 358.935 592.809 355.649C591.284 354.134 589.65 352.671 587.7 351.802C585.713 350.918 583.519 350.661 581.417 350.93C579.266 351.205 577.209 352.011 575.38 353.163C574.571 353.673 573.932 354.366 573.154 354.908C572.358 355.464 571.726 355.071 570.881 354.753C568.844 353.989 566.339 354.168 564.301 354.655C562.015 355.201 559.867 356.373 558.047 357.866C556.275 359.319 554.745 361.18 553.891 363.381C553.51 364.361 553.228 365.42 553.186 366.49C553.169 366.929 553.226 367.164 552.898 367.444C552.595 367.703 552.186 367.859 551.869 368.116C548.807 370.601 546.815 374.417 546.473 378.496C546.273 380.876 547.146 384.612 548.752 388.566C550.359 392.521 557.84 401.619 562.63 404.174C566.905 406.454 572.169 407.053 576.81 406.449C575.174 410.747 574.788 415.503 574.919 420.145C575.062 425.188 575.848 430.192 577.26 435.063C578.601 439.692 580.337 444.469 583.029 448.487C585.546 452.245 588.914 454.845 593.238 455.683C595.219 456.067 597.231 456.161 599.231 456.188C601.201 456.214 603.169 456.22 605.113 455.924C608.792 455.364 612.684 453.783 614.308 450.087C614.893 448.755 615.48 447.136 615.728 445.681C615.817 445.158 615.863 444.821 615.404 444.512C614.855 444.142 614.126 443.973 613.515 443.751C610.027 442.485 607.272 440.092 605.535 436.677C603.772 433.212 603.012 428.178 605.947 425.293C609.569 421.731 615.184 422.196 619.82 422.851C619.314 416.45 620.75 409.984 625.049 405.368C629.804 400.261 636.385 397.43 641.457 392.681C642.779 391.443 644.096 390.106 644.752 388.339C645.026 387.601 645.322 386.666 645.24 385.854C645.132 384.788 644.203 384.205 643.437 383.627C639.378 380.559 626.626 376.05 620.984 376.384Z" fill="#191847"/>
<path fill-rule="evenodd" clip-rule="evenodd" d="M700.88 516.128L743.638 466.852C748.632 452.95 754.372 441.462 760.858 432.39C763.095 430.304 767.474 427.92 765.994 437.205C764.514 446.49 763.375 456.323 766.457 457.871C769.539 459.42 773.811 454.077 777.898 457.033C780.623 459.004 772.767 466.626 754.328 479.9L728.577 530.048L700.88 516.128ZM794.101 509.768L812.868 488.084C811.51 474.276 813.116 466.48 817.685 464.696C820.609 461.742 820.351 479.922 826.537 476.061C832.723 472.199 844.562 453.981 848.294 455.406C853.815 457.513 854.256 470.103 851.947 477.304C847.63 490.763 842.177 496.839 827.164 507.715C819.315 513.402 811.664 521.804 804.211 532.921L794.101 509.768Z" fill="#915B3C"/>
<path fill-rule="evenodd" clip-rule="evenodd" d="M672.325 519.269C691.044 512.103 714.632 498.844 735.078 471.958L754.261 491.482C742.603 516.624 722.245 541.278 699.333 549.048C681.277 555.171 664.131 536.942 672.325 519.269Z" fill="#2026A2"/>
<path fill-rule="evenodd" clip-rule="evenodd" d="M711.552 547.443C733.347 545.023 764.627 526.752 805.392 492.631C825.975 512.411 837.729 527.594 840.654 538.182C808.171 574.161 777.121 596.344 748.904 607.51C756.066 624.054 759.966 640.876 758.505 658.111C755.501 693.541 662.06 696.402 636.164 712.258C597.608 661.931 622.873 626.302 609.423 589.94C594.694 550.12 603.941 476.993 608.644 475.249L651.533 459.349C665.171 488.874 689.504 517.965 711.552 547.443Z" fill="#1F28CF"/>
<path fill-rule="evenodd" clip-rule="evenodd" d="M585.303 123.284C584.526 134.971 580.587 146.388 571.431 154.562C545.047 178.114 515.272 138.295 520.848 118.873C526.424 99.4509 558.744 67.8797 569.81 74.2117C574.223 76.7369 579.57 86.2812 582.731 98.3383L610.998 59.6973L639.347 87.2962L585.303 123.284Z" fill="#915B3C"/>
<path fill-rule="evenodd" clip-rule="evenodd" d="M518.519 143.671C521.243 148.623 526.476 154.498 529.106 156.53C524.622 158.444 520.591 161.516 517.621 165.438C514.736 169.248 513.437 173.62 511.89 178.019C511.177 180.047 510.557 182.151 510.61 184.285C510.664 186.459 511.375 188.551 512.52 190.334C513.691 192.159 515.303 193.67 517.129 194.827C517.936 195.339 518.837 195.618 519.66 196.088C520.504 196.569 520.42 197.309 520.497 198.208C520.681 200.376 521.917 202.561 523.232 204.193C524.708 206.023 526.688 207.46 528.818 208.463C530.891 209.439 533.229 210.021 535.583 209.848C536.632 209.771 537.71 209.571 538.694 209.15C539.098 208.977 539.285 208.824 539.679 209C540.043 209.163 540.359 209.465 540.728 209.641C544.286 211.34 548.588 211.5 552.419 210.058C554.654 209.216 557.653 206.824 560.535 203.676C563.417 200.527 568.422 189.864 568.672 184.441C568.896 179.601 567.177 174.59 564.639 170.657C569.223 170.289 573.684 168.596 577.82 166.484C582.313 164.19 586.495 161.332 590.288 157.965C593.893 154.767 597.461 151.148 599.935 146.992C602.248 143.105 603.15 138.947 602.051 134.682C601.547 132.728 600.768 130.87 599.933 129.053C599.111 127.262 598.271 125.482 597.169 123.853C595.083 120.771 591.984 117.935 587.95 118.055C586.495 118.099 584.781 118.264 583.361 118.664C582.851 118.809 582.526 118.912 582.444 119.459C582.346 120.114 582.506 120.845 582.568 121.492C582.922 125.185 581.944 128.702 579.605 131.737C577.233 134.816 573.013 137.664 569.147 136.252C564.376 134.51 562.385 129.239 560.986 124.771C555.422 127.977 548.966 129.456 542.951 127.556C536.297 125.453 530.915 120.726 524.448 118.184C522.762 117.522 520.989 116.906 519.112 117.072C518.327 117.141 517.355 117.276 516.658 117.698C515.741 118.254 515.614 119.343 515.42 120.283C514.393 125.266 515.796 138.718 518.519 143.671Z" fill="#191847"/>
<path fill-rule="evenodd" clip-rule="evenodd" d="M850.868 -386.496L815.485 -404.837C792.608 -357.378 768.931 -303.692 744.456 -243.778C719.98 -183.865 698.254 -124.203 679.277 -64.7938L756.477 10.3623C783.538 -61.8128 804.765 -130.665 820.16 -196.193C835.555 -261.722 845.791 -325.156 850.868 -386.496Z" fill="#DB2721"/>
<path fill-rule="evenodd" clip-rule="evenodd" d="M747.65 1.77054C806.134 -41.73 886.248 -92.056 889.735 -92.6211C892.06 -92.9979 940.055 -69.8935 1033.72 -23.3079L1042.82 -38.787C945.758 -109.365 891.636 -143.497 880.459 -141.183C863.694 -137.711 751.224 -90.8358 689.908 -54.443L747.65 1.77054Z" fill="#915B3C"/>
<path fill-rule="evenodd" clip-rule="evenodd" d="M998.112 -36.9297L1012.32 -62.3095C954.093 -129.866 911.16 -163.804 883.518 -164.124C855.877 -164.444 789.844 -129.34 685.42 -58.8128L759.035 12.8531C841.142 -48.2114 884.361 -79.5942 888.694 -81.2951C893.027 -82.9961 929.499 -68.2076 998.112 -36.9297Z" fill="#FF4133"/>
<path fill-rule="evenodd" clip-rule="evenodd" d="M610.425 11.5123L547.564 -5.94679C532.864 -4.48788 520.025 -4.73969 509.047 -6.7022C506.203 -7.82653 502.169 -10.758 511.19 -13.408C520.211 -16.0581 529.58 -19.2512 529.656 -22.6995C529.732 -26.1479 523.071 -27.7116 523.986 -32.6726C524.596 -35.98 534.854 -32.1569 554.758 -21.2036L611.105 -19.4781L610.425 11.5123ZM564.657 -69.9477L537.015 -77.587C525.127 -70.4316 517.397 -68.5344 513.824 -71.8956C509.901 -73.2677 526.431 -80.8406 520.287 -84.7694C514.144 -88.6983 492.608 -91.5687 492.292 -95.5504C491.824 -101.441 503.006 -107.246 510.501 -108.252C524.509 -110.132 532.338 -107.816 548.607 -98.9273C557.113 -94.2797 567.986 -90.9771 581.226 -89.0193L564.657 -69.9477Z" fill="#915B3C"/>
<path fill-rule="evenodd" clip-rule="evenodd" d="M625.522 35.9538C611.014 22.1249 588.911 6.51473 555.851 -0.407402L565.248 -26.1151C592.959 -26.3813 623.966 -18.5803 640.821 -1.22382C654.103 12.4541 645.002 35.7667 625.522 35.9538Z" fill="#2026A2"/>
<path fill-rule="evenodd" clip-rule="evenodd" d="M634.125 -11.5693C622.581 -30.2137 592.649 -50.6193 544.331 -72.786C553.357 -99.8672 562.023 -117.002 570.33 -124.19C616.771 -110.301 650.136 -91.7832 672.336 -71.0936C684.202 -84.6649 697.721 -95.41 713.912 -101.49C747.2 -113.99 789.904 -30.8285 815.343 -14.2488C786.445 42.181 743.42 34.6611 716.355 62.4205C686.716 92.8201 616.702 115.866 613.108 112.367L580.333 80.4595C601.143 55.4655 616.968 20.999 634.125 -11.5693Z" fill="#1F28CF"/>
<path d="M249.096 261.3C246.472 261.3 244.185 260.513 242.236 258.938C240.287 257.339 239.187 255.34 238.937 252.941L244.11 251.404C244.285 252.853 244.86 254.028 245.835 254.927C246.834 255.827 247.996 256.277 249.321 256.277C250.495 256.277 251.432 256.027 252.132 255.527C252.857 255.002 253.219 254.328 253.219 253.503C253.219 252.828 252.969 252.266 252.469 251.816C251.97 251.366 251.32 251.004 250.52 250.729C249.746 250.429 248.883 250.154 247.934 249.904C246.984 249.629 246.022 249.304 245.047 248.93C244.098 248.53 243.223 248.067 242.423 247.543C241.649 246.993 241.011 246.231 240.512 245.256C240.012 244.281 239.762 243.144 239.762 241.845C239.762 239.721 240.649 237.959 242.423 236.559C244.223 235.16 246.422 234.46 249.021 234.46C251.545 234.46 253.732 235.085 255.581 236.334C257.455 237.559 258.617 239.171 259.067 241.17L253.781 243.382C253.507 242.182 252.944 241.233 252.095 240.533C251.27 239.833 250.245 239.483 249.021 239.483C247.996 239.483 247.184 239.696 246.584 240.12C245.984 240.52 245.685 241.083 245.685 241.807C245.685 242.357 245.934 242.819 246.434 243.194C246.934 243.544 247.571 243.832 248.346 244.056C249.146 244.281 250.02 244.506 250.97 244.731C251.945 244.931 252.907 245.231 253.856 245.631C254.831 246.031 255.706 246.518 256.48 247.093C257.28 247.668 257.93 248.492 258.43 249.567C258.93 250.641 259.179 251.903 259.179 253.353C259.179 255.727 258.255 257.651 256.405 259.126C254.556 260.575 252.12 261.3 249.096 261.3ZM262.394 261V242.107H267.904V244.656C269.129 242.757 270.903 241.807 273.227 241.807C276.051 241.807 277.95 242.932 278.925 245.181C279.475 244.206 280.312 243.407 281.437 242.782C282.561 242.132 283.848 241.807 285.298 241.807C287.322 241.807 288.959 242.407 290.208 243.607C291.458 244.806 292.083 246.318 292.083 248.142V261H286.61V249.754C286.61 248.705 286.335 247.892 285.785 247.318C285.26 246.718 284.51 246.418 283.536 246.418C282.411 246.418 281.524 246.855 280.874 247.73C280.25 248.605 279.937 249.804 279.937 251.329V261H274.502V249.754C274.502 248.73 274.227 247.917 273.677 247.318C273.152 246.718 272.415 246.418 271.465 246.418C270.341 246.418 269.466 246.868 268.841 247.768C268.217 248.642 267.904 249.829 267.904 251.329V261H262.394ZM303.75 241.807C306.399 241.807 308.498 242.495 310.048 243.869C311.597 245.219 312.372 247.193 312.372 249.792V261H307.049V258.601C306.499 259.426 305.737 260.088 304.762 260.588C303.787 261.062 302.775 261.3 301.726 261.3C299.901 261.3 298.402 260.763 297.227 259.688C296.053 258.613 295.466 257.276 295.466 255.677C295.466 252.028 298.19 249.917 303.637 249.342L307.049 249.005V248.892C307.049 247.967 306.749 247.243 306.149 246.718C305.574 246.168 304.775 245.893 303.75 245.893C302.85 245.893 302.101 246.156 301.501 246.68C300.901 247.205 300.551 247.917 300.451 248.817L295.653 247.917C295.953 246.093 296.865 244.619 298.389 243.494C299.914 242.37 301.701 241.807 303.75 241.807ZM303.075 257.364C304.275 257.364 305.224 256.952 305.924 256.127C306.649 255.302 307.024 254.315 307.049 253.165V253.128V253.016V252.866L303.525 253.278C302.625 253.378 301.926 253.628 301.426 254.028C300.951 254.428 300.714 254.915 300.714 255.49C300.714 256.039 300.914 256.489 301.313 256.839C301.738 257.189 302.325 257.364 303.075 257.364ZM316.646 261V234.46H322.156V261H316.646ZM326.42 261V234.46H331.93V261H326.42ZM351.273 261V239.821H343.551V234.76H364.88V239.821H357.195V261H351.273ZM382.268 251.066C382.268 251.891 382.243 252.578 382.193 253.128H368.623C369.173 255.527 370.648 256.727 373.047 256.727C375.071 256.727 376.295 255.914 376.72 254.29L381.893 255.677C381.344 257.451 380.269 258.838 378.67 259.838C377.07 260.813 375.146 261.3 372.897 261.3C369.848 261.3 367.461 260.325 365.737 258.376C364.038 256.402 363.188 254.128 363.188 251.554C363.188 249.904 363.5 248.367 364.125 246.943C364.75 245.518 365.787 244.306 367.236 243.307C368.711 242.307 370.485 241.807 372.559 241.807C374.184 241.807 375.633 242.095 376.908 242.669C378.207 243.219 379.232 243.956 379.982 244.881C380.731 245.806 381.294 246.793 381.668 247.843C382.068 248.892 382.268 249.967 382.268 251.066ZM368.698 249.229H376.383C376.283 248.23 375.908 247.43 375.258 246.83C374.634 246.206 373.734 245.893 372.559 245.893C370.51 245.893 369.223 247.005 368.698 249.229ZM392.962 241.807C395.611 241.807 397.71 242.495 399.259 243.869C400.809 245.219 401.583 247.193 401.583 249.792V261H396.26V258.601C395.711 259.426 394.948 260.088 393.974 260.588C392.999 261.062 391.987 261.3 390.937 261.3C389.113 261.3 387.614 260.763 386.439 259.688C385.264 258.613 384.677 257.276 384.677 255.677C384.677 252.028 387.401 249.917 392.849 249.342L396.26 249.005V248.892C396.26 247.967 395.96 247.243 395.361 246.718C394.786 246.168 393.986 245.893 392.962 245.893C392.062 245.893 391.312 246.156 390.712 246.68C390.113 247.205 389.763 247.917 389.663 248.817L384.865 247.917C385.165 246.093 386.077 244.619 387.601 243.494C389.126 242.37 390.912 241.807 392.962 241.807ZM392.287 257.364C393.486 257.364 394.436 256.952 395.136 256.127C395.86 255.302 396.235 254.315 396.26 253.165V253.128V253.016V252.866L392.737 253.278C391.837 253.378 391.137 253.628 390.637 254.028C390.163 254.428 389.925 254.915 389.925 255.49C389.925 256.039 390.125 256.489 390.525 256.839C390.95 257.189 391.537 257.364 392.287 257.364ZM405.857 261V242.107H411.368V244.656C412.592 242.757 414.366 241.807 416.691 241.807C419.515 241.807 421.414 242.932 422.388 245.181C422.938 244.206 423.775 243.407 424.9 242.782C426.025 242.132 427.312 241.807 428.761 241.807C430.785 241.807 432.422 242.407 433.672 243.607C434.921 244.806 435.546 246.318 435.546 248.142V261H430.073V249.754C430.073 248.705 429.798 247.892 429.248 247.318C428.724 246.718 427.974 246.418 426.999 246.418C425.875 246.418 424.987 246.855 424.338 247.73C423.713 248.605 423.401 249.804 423.401 251.329V261H417.965V249.754C417.965 248.73 417.69 247.917 417.14 247.318C416.616 246.718 415.878 246.418 414.929 246.418C413.804 246.418 412.93 246.868 412.305 247.768C411.68 248.642 411.368 249.829 411.368 251.329V261H405.857ZM251.907 305.813C250.933 306.137 249.908 306.3 248.833 306.3C246.684 306.3 244.947 305.725 243.623 304.576C242.298 303.426 241.636 301.752 241.636 299.552V291.68H238.637V287.107H241.636V281.634H247.147V287.107H251.72V291.68H247.147V298.84C247.147 299.665 247.346 300.315 247.746 300.789C248.171 301.264 248.721 301.502 249.396 301.502C250.245 301.502 250.958 301.352 251.532 301.052L251.907 305.813ZM256.171 306V279.46H261.681V289.656C262.931 287.757 264.842 286.807 267.416 286.807C269.566 286.807 271.277 287.432 272.552 288.682C273.826 289.931 274.464 291.605 274.464 293.705V306H268.991V295.129C268.991 294.08 268.691 293.242 268.091 292.618C267.491 291.993 266.679 291.68 265.654 291.68C263.006 291.68 261.681 293.705 261.681 297.753V306H256.171ZM286.105 286.807C288.754 286.807 290.853 287.495 292.403 288.869C293.952 290.219 294.727 292.193 294.727 294.792V306H289.404V303.601C288.854 304.426 288.092 305.088 287.117 305.588C286.143 306.062 285.131 306.3 284.081 306.3C282.257 306.3 280.757 305.763 279.583 304.688C278.408 303.613 277.821 302.276 277.821 300.677C277.821 297.028 280.545 294.917 285.993 294.342L289.404 294.005V293.892C289.404 292.967 289.104 292.243 288.504 291.718C287.93 291.168 287.13 290.893 286.105 290.893C285.206 290.893 284.456 291.156 283.856 291.68C283.256 292.205 282.907 292.917 282.807 293.817L278.008 292.917C278.308 291.093 279.22 289.619 280.745 288.494C282.269 287.37 284.056 286.807 286.105 286.807ZM285.431 302.364C286.63 302.364 287.58 301.952 288.279 301.127C289.004 300.302 289.379 299.315 289.404 298.165V298.128V298.016V297.866L285.88 298.278C284.981 298.378 284.281 298.628 283.781 299.028C283.306 299.428 283.069 299.915 283.069 300.49C283.069 301.039 283.269 301.489 283.669 301.839C284.094 302.189 284.681 302.364 285.431 302.364ZM310.332 305.813C309.358 306.137 308.333 306.3 307.258 306.3C305.109 306.3 303.372 305.725 302.048 304.576C300.723 303.426 300.061 301.752 300.061 299.552V291.68H297.062V287.107H300.061V281.634H305.572V287.107H310.145V291.68H305.572V298.84C305.572 299.665 305.771 300.315 306.171 300.789C306.596 301.264 307.146 301.502 307.821 301.502C308.67 301.502 309.383 301.352 309.957 301.052L310.332 305.813ZM322.32 306V287.107H327.83V289.656C329.055 287.757 330.829 286.807 333.153 286.807C335.977 286.807 337.876 287.932 338.851 290.181C339.401 289.206 340.238 288.407 341.362 287.782C342.487 287.132 343.774 286.807 345.223 286.807C347.248 286.807 348.885 287.407 350.134 288.607C351.384 289.806 352.008 291.318 352.008 293.142V306H346.535V294.754C346.535 293.705 346.261 292.892 345.711 292.318C345.186 291.718 344.436 291.418 343.462 291.418C342.337 291.418 341.45 291.855 340.8 292.73C340.175 293.605 339.863 294.804 339.863 296.329V306H334.428V294.754C334.428 293.73 334.153 292.917 333.603 292.318C333.078 291.718 332.341 291.418 331.391 291.418C330.267 291.418 329.392 291.868 328.767 292.768C328.143 293.642 327.83 294.829 327.83 296.329V306H322.32ZM363.676 286.807C366.325 286.807 368.424 287.495 369.973 288.869C371.523 290.219 372.298 292.193 372.298 294.792V306H366.975V303.601C366.425 304.426 365.663 305.088 364.688 305.588C363.713 306.062 362.701 306.3 361.652 306.3C359.827 306.3 358.328 305.763 357.153 304.688C355.979 303.613 355.391 302.276 355.391 300.677C355.391 297.028 358.115 294.917 363.563 294.342L366.975 294.005V293.892C366.975 292.967 366.675 292.243 366.075 291.718C365.5 291.168 364.7 290.893 363.676 290.893C362.776 290.893 362.026 291.156 361.427 291.68C360.827 292.205 360.477 292.917 360.377 293.817L355.579 292.917C355.879 291.093 356.791 289.619 358.315 288.494C359.84 287.37 361.627 286.807 363.676 286.807ZM363.001 302.364C364.201 302.364 365.15 301.952 365.85 301.127C366.575 300.302 366.95 299.315 366.975 298.165V298.128V298.016V297.866L363.451 298.278C362.551 298.378 361.852 298.628 361.352 299.028C360.877 299.428 360.639 299.915 360.639 300.49C360.639 301.039 360.839 301.489 361.239 301.839C361.664 302.189 362.251 302.364 363.001 302.364ZM389.317 306L384.181 298.203L382.119 300.265V306H376.572V279.46H382.119V293.292L388.417 287.107H395.314L387.855 294.529L395.877 306H389.317ZM415.141 296.066C415.141 296.891 415.116 297.578 415.066 298.128H401.497C402.046 300.527 403.521 301.727 405.92 301.727C407.944 301.727 409.169 300.914 409.593 299.29L414.767 300.677C414.217 302.451 413.142 303.838 411.543 304.838C409.943 305.813 408.019 306.3 405.77 306.3C402.721 306.3 400.335 305.325 398.61 303.376C396.911 301.402 396.061 299.128 396.061 296.554C396.061 294.904 396.374 293.367 396.998 291.943C397.623 290.518 398.66 289.306 400.11 288.307C401.584 287.307 403.358 286.807 405.433 286.807C407.057 286.807 408.506 287.095 409.781 287.669C411.08 288.219 412.105 288.956 412.855 289.881C413.604 290.806 414.167 291.793 414.542 292.843C414.941 293.892 415.141 294.967 415.141 296.066ZM401.572 294.229H409.256C409.156 293.23 408.781 292.43 408.132 291.83C407.507 291.206 406.607 290.893 405.433 290.893C403.383 290.893 402.096 292.005 401.572 294.229ZM434.84 286.807C437.489 286.807 439.588 287.495 441.138 288.869C442.687 290.219 443.462 292.193 443.462 294.792V306H438.139V303.601C437.589 304.426 436.827 305.088 435.852 305.588C434.878 306.062 433.865 306.3 432.816 306.3C430.992 306.3 429.492 305.763 428.318 304.688C427.143 303.613 426.556 302.276 426.556 300.677C426.556 297.028 429.28 294.917 434.728 294.342L438.139 294.005V293.892C438.139 292.967 437.839 292.243 437.239 291.718C436.664 291.168 435.865 290.893 434.84 290.893C433.94 290.893 433.191 291.156 432.591 291.68C431.991 292.205 431.641 292.917 431.541 293.817L426.743 292.917C427.043 291.093 427.955 289.619 429.48 288.494C431.004 287.37 432.791 286.807 434.84 286.807ZM434.165 302.364C435.365 302.364 436.315 301.952 437.014 301.127C437.739 300.302 438.114 299.315 438.139 298.165V298.128V298.016V297.866L434.615 298.278C433.716 298.378 433.016 298.628 432.516 299.028C432.041 299.428 431.804 299.915 431.804 300.49C431.804 301.039 432.004 301.489 432.404 301.839C432.828 302.189 433.416 302.364 434.165 302.364ZM447.736 306V279.46H453.246V306H447.736ZM457.51 306V279.46H463.02V306H457.51ZM251.907 350.813C250.933 351.137 249.908 351.3 248.833 351.3C246.684 351.3 244.947 350.725 243.623 349.576C242.298 348.426 241.636 346.752 241.636 344.552V336.68H238.637V332.107H241.636V326.634H247.147V332.107H251.72V336.68H247.147V343.84C247.147 344.665 247.346 345.315 247.746 345.789C248.171 346.264 248.721 346.502 249.396 346.502C250.245 346.502 250.958 346.352 251.532 346.052L251.907 350.813ZM256.171 351V324.46H261.681V334.656C262.931 332.757 264.842 331.807 267.416 331.807C269.566 331.807 271.277 332.432 272.552 333.682C273.826 334.931 274.464 336.605 274.464 338.705V351H268.991V340.129C268.991 339.08 268.691 338.242 268.091 337.618C267.491 336.993 266.679 336.68 265.654 336.68C263.006 336.68 261.681 338.705 261.681 342.753V351H256.171ZM296.864 341.066C296.864 341.891 296.839 342.578 296.789 343.128H283.219C283.769 345.527 285.243 346.727 287.642 346.727C289.666 346.727 290.891 345.914 291.316 344.29L296.489 345.677C295.939 347.451 294.864 348.838 293.265 349.838C291.666 350.813 289.741 351.3 287.492 351.3C284.443 351.3 282.057 350.325 280.332 348.376C278.633 346.402 277.783 344.128 277.783 341.554C277.783 339.904 278.096 338.367 278.721 336.943C279.345 335.518 280.382 334.306 281.832 333.307C283.306 332.307 285.081 331.807 287.155 331.807C288.779 331.807 290.229 332.095 291.503 332.669C292.803 333.219 293.827 333.956 294.577 334.881C295.327 335.806 295.889 336.793 296.264 337.843C296.664 338.892 296.864 339.967 296.864 341.066ZM283.294 339.229H290.978C290.878 338.23 290.504 337.43 289.854 336.83C289.229 336.206 288.329 335.893 287.155 335.893C285.106 335.893 283.819 337.005 283.294 339.229ZM317.125 351.3C314.376 351.3 312.202 350.425 310.602 348.676C309.028 346.902 308.241 344.527 308.241 341.554C308.241 338.58 309.028 336.218 310.602 334.469C312.177 332.694 314.326 331.807 317.05 331.807C319.299 331.807 320.998 332.507 322.148 333.907V324.46H327.658V351H322.148V349.126C321.098 350.575 319.424 351.3 317.125 351.3ZM318.024 346.614C319.374 346.614 320.448 346.152 321.248 345.227C322.073 344.303 322.485 343.078 322.485 341.554C322.485 340.029 322.073 338.805 321.248 337.88C320.448 336.955 319.374 336.493 318.024 336.493C316.7 336.493 315.625 336.955 314.801 337.88C314.001 338.805 313.601 340.029 313.601 341.554C313.601 343.078 314.001 344.303 314.801 345.227C315.625 346.152 316.7 346.614 318.024 346.614ZM331.835 324.46H337.645V329.746H331.835V324.46ZM331.947 351V332.107H337.458V351H331.947ZM343.258 351V336.68H340.297V332.107H343.258V330.795C343.258 328.596 343.921 326.872 345.245 325.622C346.595 324.373 348.331 323.748 350.456 323.748C351.58 323.748 352.58 323.91 353.455 324.235L353.08 328.659C352.38 328.384 351.755 328.246 351.205 328.246C350.456 328.246 349.856 328.484 349.406 328.958C348.981 329.433 348.769 330.083 348.769 330.908V332.107H353.08V336.68H348.769V351H343.258ZM357.791 351V336.68H354.83V332.107H357.791V330.795C357.791 328.596 358.454 326.872 359.778 325.622C361.128 324.373 362.865 323.748 364.989 323.748C366.113 323.748 367.113 323.91 367.988 324.235L367.613 328.659C366.913 328.384 366.288 328.246 365.738 328.246C364.989 328.246 364.389 328.484 363.939 328.958C363.514 329.433 363.302 330.083 363.302 330.908V332.107H367.613V336.68H363.302V351H357.791ZM387.906 341.066C387.906 341.891 387.881 342.578 387.831 343.128H374.261C374.811 345.527 376.285 346.727 378.684 346.727C380.708 346.727 381.933 345.914 382.358 344.29L387.531 345.677C386.981 347.451 385.906 348.838 384.307 349.838C382.708 350.813 380.783 351.3 378.534 351.3C375.485 351.3 373.099 350.325 371.374 348.376C369.675 346.402 368.825 344.128 368.825 341.554C368.825 339.904 369.138 338.367 369.763 336.943C370.387 335.518 371.424 334.306 372.874 333.307C374.348 332.307 376.123 331.807 378.197 331.807C379.821 331.807 381.271 332.095 382.545 332.669C383.845 333.219 384.869 333.956 385.619 334.881C386.369 335.806 386.931 336.793 387.306 337.843C387.706 338.892 387.906 339.967 387.906 341.066ZM374.336 339.229H382.02C381.92 338.23 381.546 337.43 380.896 336.83C380.271 336.206 379.371 335.893 378.197 335.893C376.148 335.893 374.861 337.005 374.336 339.229ZM403.996 337.393C403.346 337.093 402.547 336.943 401.597 336.943C400.223 336.943 399.073 337.53 398.148 338.705C397.224 339.854 396.761 341.679 396.761 344.178V351H391.251V332.107H396.761V335.368C397.186 334.369 397.936 333.532 399.011 332.857C400.085 332.157 401.185 331.807 402.309 331.807C403.109 331.807 403.784 331.907 404.333 332.107L403.996 337.393ZM424.44 341.066C424.44 341.891 424.415 342.578 424.365 343.128H410.795C411.345 345.527 412.819 346.727 415.218 346.727C417.242 346.727 418.467 345.914 418.892 344.29L424.065 345.677C423.515 347.451 422.44 348.838 420.841 349.838C419.242 350.813 417.317 351.3 415.068 351.3C412.019 351.3 409.633 350.325 407.908 348.376C406.209 346.402 405.359 344.128 405.359 341.554C405.359 339.904 405.672 338.367 406.297 336.943C406.921 335.518 407.958 334.306 409.408 333.307C410.882 332.307 412.657 331.807 414.731 331.807C416.355 331.807 417.805 332.095 419.079 332.669C420.379 333.219 421.403 333.956 422.153 334.881C422.903 335.806 423.465 336.793 423.84 337.843C424.24 338.892 424.44 339.967 424.44 341.066ZM410.87 339.229H418.554C418.454 338.23 418.08 337.43 417.43 336.83C416.805 336.206 415.905 335.893 414.731 335.893C412.682 335.893 411.395 337.005 410.87 339.229ZM427.785 351V332.107H433.295V334.619C434.57 332.744 436.494 331.807 439.068 331.807C441.142 331.807 442.817 332.432 444.091 333.682C445.366 334.931 446.003 336.593 446.003 338.667V351H440.53V340.129C440.53 339.105 440.23 338.28 439.63 337.655C439.056 337.005 438.268 336.68 437.269 336.68C434.62 336.68 433.295 338.692 433.295 342.716V351H427.785ZM458.996 351.3C456.147 351.3 453.823 350.4 452.024 348.601C450.224 346.777 449.325 344.428 449.325 341.554C449.325 338.68 450.224 336.343 452.024 334.544C453.823 332.719 456.147 331.807 458.996 331.807C461.52 331.807 463.607 332.407 465.256 333.607C466.905 334.806 467.88 336.443 468.18 338.517L462.857 339.567C462.707 338.617 462.307 337.868 461.657 337.318C461.008 336.768 460.195 336.493 459.221 336.493C457.921 336.493 456.884 336.955 456.109 337.88C455.36 338.78 454.985 340.004 454.985 341.554C454.985 343.078 455.372 344.303 456.147 345.227C456.922 346.152 457.946 346.614 459.221 346.614C461.17 346.614 462.357 345.665 462.782 343.765L468.142 344.852C467.793 346.852 466.805 348.426 465.181 349.576C463.557 350.725 461.495 351.3 458.996 351.3ZM489.674 341.066C489.674 341.891 489.649 342.578 489.599 343.128H476.029C476.579 345.527 478.053 346.727 480.452 346.727C482.476 346.727 483.701 345.914 484.126 344.29L489.299 345.677C488.749 347.451 487.674 348.838 486.075 349.838C484.475 350.813 482.551 351.3 480.302 351.3C477.253 351.3 474.867 350.325 473.142 348.376C471.443 346.402 470.593 344.128 470.593 341.554C470.593 339.904 470.906 338.367 471.53 336.943C472.155 335.518 473.192 334.306 474.642 333.307C476.116 332.307 477.891 331.807 479.965 331.807C481.589 331.807 483.039 332.095 484.313 332.669C485.613 333.219 486.637 333.956 487.387 334.881C488.137 335.806 488.699 336.793 489.074 337.843C489.474 338.892 489.674 339.967 489.674 341.066ZM476.104 339.229H483.788C483.688 338.23 483.313 337.43 482.664 336.83C482.039 336.206 481.139 335.893 479.965 335.893C477.915 335.893 476.628 337.005 476.104 339.229Z" fill="#2F7064"/>
</g>
</svg>
