<svg width="240" height="153" viewBox="0 0 240 153" fill="none" xmlns="http://www.w3.org/2000/svg">
<path d="M92.4127 62.626L90.9408 53.6768L87.7167 54.2071L87.5241 53.036L95.2734 51.7614L95.466 52.9325L92.2564 53.4604L93.7284 62.4096L92.4127 62.626ZM102.797 56.8346C102.83 57.037 102.852 57.2266 102.861 57.4032L97.1067 58.3497C97.2658 59.0758 97.5946 59.6306 98.0932 60.0138C98.5999 60.3858 99.1809 60.5179 99.8363 60.4101C100.395 60.3182 100.837 60.1168 101.162 59.8059C101.487 59.4951 101.666 59.1045 101.697 58.634L102.899 58.7185C102.832 59.4522 102.541 60.0642 102.028 60.5545C101.524 61.0432 100.853 61.3565 100.015 61.4944C98.9448 61.6704 98.0227 61.4509 97.2484 60.8358C96.4837 60.2191 96.0142 59.3807 95.8398 58.3205C95.6638 57.2506 95.8353 56.3067 96.3541 55.4889C96.8809 54.6598 97.6793 54.1572 98.7492 53.9813C99.7997 53.8085 100.698 54.0023 101.443 54.5627C102.187 55.1135 102.638 55.8708 102.797 56.8346ZM97.0102 57.3113L101.42 56.586C101.267 56.0172 100.968 55.5862 100.524 55.293C100.08 54.9998 99.5445 54.9047 98.918 55.0078C98.3493 55.1013 97.896 55.3541 97.5579 55.766C97.2182 56.1684 97.0356 56.6835 97.0102 57.3113ZM107.425 60.2756C106.615 60.4088 105.916 60.3109 105.327 59.9821C104.748 59.6517 104.319 59.2075 104.039 58.6497L105.018 58.0135C105.516 58.9909 106.261 59.3979 107.254 59.2347C107.687 59.1633 108.022 58.9994 108.257 58.743C108.5 58.4753 108.596 58.1873 108.545 57.8789C108.49 57.5415 108.302 57.3003 107.981 57.155C107.66 57.0098 107.284 56.9231 106.854 56.8949C106.433 56.8651 106.006 56.8265 105.573 56.779C105.147 56.7203 104.765 56.5605 104.425 56.2996C104.085 56.0387 103.873 55.6529 103.789 55.1421C103.694 54.5637 103.848 54.0582 104.252 53.6255C104.656 53.1928 105.249 52.9122 106.029 52.7838C106.675 52.6776 107.276 52.752 107.833 53.0069C108.388 53.2521 108.786 53.6271 109.028 54.1319L108.075 54.7489C107.918 54.3985 107.658 54.1394 107.294 53.9716C106.938 53.7926 106.562 53.7356 106.167 53.8006C105.752 53.8688 105.438 54.0046 105.224 54.2081C105.008 54.4019 104.924 54.6434 104.972 54.9326C105.012 55.1736 105.145 55.3545 105.373 55.4754C105.611 55.5948 105.889 55.6628 106.209 55.6795C106.536 55.685 106.893 55.7155 107.278 55.7709C107.662 55.8167 108.019 55.8817 108.349 55.9659C108.68 56.0501 108.973 56.2394 109.23 56.5338C109.494 56.817 109.665 57.1948 109.743 57.667C109.847 58.3032 109.687 58.8641 109.262 59.3497C108.837 59.8354 108.225 60.144 107.425 60.2756Z" fill="#44484F"/>
<path fill-rule="evenodd" clip-rule="evenodd" d="M14.9027 100.988L21.6065 141.684C22.4286 146.674 27.1403 150.053 32.1306 149.231L179.268 124.994C184.258 124.172 187.637 119.46 186.815 114.47L179.478 69.9279C178.656 64.9377 173.944 61.5587 168.954 62.3807L21.8165 86.6183C21.2024 86.7195 20.6126 86.8796 20.0521 87.0918L2.14577 79.8399C1.322 79.5063 0.587293 80.5598 1.11679 81.3154L14.9027 100.988Z" fill="#2F3676"/>
<path d="M40.5362 113.521C40.2364 113.692 39.8652 113.816 39.4224 113.893C38.7679 114.006 38.2143 113.908 37.7616 113.6C37.317 113.281 37.0351 112.735 36.9159 111.962L36.2945 107.937L34.9374 108.172L34.7697 107.086L36.1268 106.851L35.7849 104.635L37.012 104.423L37.354 106.638L39.3031 106.301L39.4707 107.387L37.5217 107.725L38.1498 111.793C38.2079 112.17 38.3481 112.438 38.5704 112.598C38.7927 112.758 39.0675 112.809 39.3947 112.753C39.7508 112.691 40.0443 112.576 40.2752 112.407L40.5362 113.521ZM42.104 113.31L40.5215 103.058L41.7487 102.845L42.4259 107.233C42.7959 106.108 43.5439 105.449 44.67 105.254C45.4977 105.111 46.1936 105.233 46.7574 105.621C47.331 106.008 47.6788 106.597 47.801 107.388L48.5431 112.196L47.3159 112.408L46.6096 107.832C46.5261 107.292 46.3025 106.899 45.9387 106.655C45.583 106.399 45.126 106.32 44.5678 106.416C43.8941 106.533 43.399 106.911 43.0827 107.55C42.776 108.188 42.6979 108.995 42.8484 109.97L43.3312 113.097L42.104 113.31ZM56.504 106.73C56.5353 106.933 56.5547 107.123 56.5623 107.3L50.8162 108.294C50.968 109.021 51.2906 109.575 51.7841 109.955C52.2858 110.324 52.8639 110.452 53.5184 110.339C54.0766 110.242 54.5192 110.037 54.8463 109.723C55.1733 109.409 55.3547 109.015 55.3905 108.543L56.588 108.619C56.5139 109.355 56.2186 109.971 55.7022 110.467C55.1955 110.961 54.5234 111.28 53.686 111.425C52.6176 111.61 51.7003 111.397 50.9341 110.786C50.1775 110.174 49.7172 109.336 49.5533 108.275C49.3879 107.203 49.5676 106.255 50.0926 105.431C50.6257 104.595 51.4265 104.085 52.4948 103.9C53.544 103.719 54.4375 103.906 55.1756 104.462C55.9122 105.009 56.355 105.765 56.504 106.73ZM50.7297 107.253L55.1331 106.492C54.9859 105.922 54.6923 105.493 54.2522 105.202C53.812 104.911 53.2792 104.82 52.6535 104.928C52.0857 105.027 51.6312 105.284 51.2903 105.699C50.9478 106.106 50.7609 106.624 50.7297 107.253ZM65.3896 109.4C64.3116 109.587 63.3876 109.395 62.6177 108.824C61.8463 108.244 61.3734 107.389 61.1991 106.26C61.0247 105.13 61.2167 104.166 61.775 103.365C62.3318 102.555 63.1493 102.057 64.2272 101.871C65.0742 101.724 65.8152 101.819 66.4501 102.155C67.0932 102.48 67.538 102.993 67.7845 103.693L66.6097 104.149C66.4642 103.719 66.1918 103.394 65.7924 103.176C65.3916 102.948 64.9361 102.878 64.426 102.966C63.7138 103.089 63.1791 103.435 62.8219 104.002C62.473 104.558 62.3603 105.236 62.484 106.038C62.6077 106.839 62.9192 107.449 63.4187 107.868C63.9264 108.276 64.5363 108.418 65.2486 108.295C65.7683 108.205 66.1806 107.995 66.4853 107.665C66.7997 107.333 66.9678 106.917 66.9895 106.418L68.2258 106.457C68.1881 107.236 67.9132 107.888 67.4013 108.413C66.8975 108.926 66.2269 109.256 65.3896 109.4ZM75.8931 106.498C75.3089 107.323 74.4778 107.828 73.3998 108.015C72.3218 108.201 71.3819 108.002 70.5802 107.417C69.7769 106.823 69.2911 105.98 69.1227 104.889C68.9543 103.798 69.1622 102.841 69.7464 102.016C70.3292 101.182 71.1595 100.671 72.2375 100.485C73.3155 100.298 74.2561 100.502 75.0594 101.097C75.8708 101.68 76.3607 102.517 76.5291 103.608C76.6975 104.699 76.4855 105.662 75.8931 106.498ZM71.3546 106.48C71.883 106.894 72.5081 107.039 73.2299 106.914C73.9518 106.789 74.5009 106.442 74.8773 105.871C75.2522 105.291 75.3793 104.61 75.2586 103.828C75.1379 103.046 74.8134 102.448 74.285 102.034C73.7551 101.61 73.1293 101.461 72.4074 101.585C71.6855 101.71 71.1371 102.063 70.7623 102.643C70.3859 103.214 70.258 103.89 70.3788 104.672C70.4995 105.454 70.8247 106.057 71.3546 106.48ZM81.9808 100.152C81.6934 100.083 81.3716 100.079 81.0155 100.141C80.3995 100.247 79.9404 100.634 79.6382 101.301C79.3441 101.956 79.2849 102.854 79.4608 103.993L79.8899 106.773L78.6628 106.985L77.5362 99.6873L78.7634 99.475L78.9914 100.952C79.1316 100.452 79.3904 100.016 79.7677 99.6432C80.145 99.2706 80.5598 99.0453 81.0122 98.967C81.3298 98.9121 81.6156 98.9072 81.8697 98.9525L81.9808 100.152ZM87.5076 99.1962C87.2202 99.127 86.8984 99.1232 86.5423 99.1848C85.9263 99.2914 85.4672 99.6781 85.165 100.345C84.8709 101 84.8118 101.898 84.9876 103.037L85.4167 105.817L84.1896 106.029L83.063 98.7312L84.2902 98.5189L84.5182 99.9959C84.6584 99.4959 84.9172 99.0596 85.2945 98.6871C85.6718 98.3145 86.0866 98.0892 86.539 98.0109C86.8566 97.956 87.1424 97.9511 87.3965 97.9964L87.5076 99.1962ZM95.3468 100.011C95.3781 100.213 95.3975 100.403 95.4051 100.58L89.659 101.574C89.8107 102.301 90.1334 102.855 90.6269 103.236C91.1286 103.605 91.7067 103.733 92.3612 103.62C92.9194 103.523 93.362 103.318 93.689 103.003C94.016 102.689 94.1975 102.296 94.2333 101.824L95.4308 101.899C95.3567 102.635 95.0614 103.252 94.545 103.747C94.0382 104.241 93.3662 104.561 92.5288 104.706C91.4604 104.89 90.5431 104.677 89.7769 104.067C89.0202 103.454 88.56 102.617 88.396 101.555C88.2306 100.484 88.4104 99.5356 88.9354 98.7114C89.4685 97.8758 90.2693 97.3656 91.3376 97.1808C92.3867 96.9993 93.2803 97.1866 94.0184 97.7428C94.755 98.2894 95.1978 99.0453 95.3468 100.011ZM89.5725 100.534L93.9759 99.7721C93.8287 99.2029 93.5351 98.773 93.0949 98.4824C92.6548 98.1918 92.1219 98.1006 91.4963 98.2089C90.9284 98.3071 90.474 98.5641 90.133 98.9799C89.7906 99.3861 89.6037 99.904 89.5725 100.534ZM100.75 103.283C99.6719 103.47 98.7479 103.278 97.978 102.707C97.2066 102.127 96.7337 101.272 96.5594 100.143C96.385 99.0134 96.577 98.0485 97.1353 97.2482C97.6922 96.4383 98.5096 95.9401 99.5876 95.7536C100.435 95.6071 101.176 95.7019 101.81 96.0381C102.454 96.3629 102.898 96.8757 103.145 97.5764L101.97 98.0324C101.825 97.6016 101.552 97.2771 101.153 97.0587C100.752 96.8307 100.296 96.7609 99.7863 96.8491C99.0741 96.9723 98.5394 97.3175 98.1823 97.8848C97.8333 98.4407 97.7206 99.1193 97.8443 99.9206C97.968 100.722 98.2796 101.332 98.7791 101.751C99.2867 102.159 99.8966 102.301 100.609 102.178C101.129 102.088 101.541 101.878 101.846 101.548C102.16 101.216 102.328 100.8 102.35 100.301L103.586 100.34C103.548 101.119 103.274 101.771 102.762 102.296C102.258 102.809 101.587 103.139 100.75 103.283ZM109.227 101.639C108.927 101.809 108.556 101.933 108.113 102.01C107.458 102.123 106.905 102.025 106.452 101.717C106.007 101.398 105.725 100.852 105.606 100.079L104.985 96.0539L103.628 96.2886L103.46 95.2026L104.817 94.9678L104.475 92.7523L105.702 92.54L106.044 94.7555L107.993 94.4184L108.161 95.5044L106.212 95.8416L106.84 99.9105C106.898 100.287 107.038 100.555 107.261 100.715C107.483 100.875 107.758 100.926 108.085 100.87C108.441 100.808 108.735 100.693 108.966 100.524L109.227 101.639ZM108.998 91.2117L110.413 90.9669L110.655 92.5308L109.24 92.7755L108.998 91.2117ZM110.668 101.449L109.541 94.1507L110.768 93.9384L111.895 101.236L110.668 101.449ZM119.671 98.9249C119.086 99.7495 118.255 100.255 117.177 100.442C116.099 100.628 115.159 100.429 114.358 99.844C113.554 99.2496 113.069 98.4069 112.9 97.316C112.732 96.2252 112.94 95.2675 113.524 94.4429C114.107 93.6086 114.937 93.0983 116.015 92.9118C117.093 92.7253 118.034 92.9293 118.837 93.5238C119.648 94.1069 120.138 94.9439 120.307 96.0348C120.475 97.1256 120.263 98.089 119.671 98.9249ZM115.132 98.9072C115.66 99.3213 116.286 99.4659 117.007 99.341C117.729 99.2162 118.278 98.8684 118.655 98.2978C119.03 97.7176 119.157 97.0365 119.036 96.2546C118.915 95.4726 118.591 94.8746 118.062 94.4606C117.533 94.0368 116.907 93.8874 116.185 94.0123C115.463 94.1372 114.915 94.4897 114.54 95.07C114.163 95.6405 114.035 96.3168 114.156 97.0987C114.277 97.8807 114.602 98.4835 115.132 98.9072ZM122.44 99.4122L121.314 92.1141L122.541 91.9018L122.753 93.2774C122.943 92.7787 123.234 92.3568 123.625 92.0116C124.016 91.6663 124.482 91.4471 125.021 91.3539C125.781 91.2223 126.438 91.3514 126.993 91.7412C127.556 92.1293 127.898 92.7095 128.017 93.4818L128.764 98.3182L127.537 98.5305L126.826 93.9258C126.748 93.4238 126.537 93.0441 126.19 92.7868C125.843 92.5199 125.419 92.4297 124.918 92.5163C124.235 92.6345 123.734 93.0085 123.417 93.6384C123.107 94.2569 123.026 95.044 123.173 95.9997L123.667 99.1999L122.44 99.4122ZM133.216 97.6669C132.408 97.8067 131.712 97.7141 131.128 97.3889C130.554 97.062 130.13 96.62 129.856 96.0628L130.838 95.4171C131.325 96.3934 132.064 96.7958 133.055 96.6243C133.489 96.5494 133.824 96.3824 134.06 96.1234C134.305 95.8531 134.404 95.5635 134.356 95.2546C134.304 94.9167 134.118 94.6762 133.8 94.5331C133.481 94.39 133.108 94.3059 132.679 94.281C132.26 94.2544 131.834 94.219 131.403 94.1747C130.979 94.1191 130.599 93.9619 130.263 93.7029C129.926 93.444 129.718 93.0587 129.639 92.547C129.55 91.9678 129.709 91.4596 130.116 91.0225C130.522 90.5854 131.116 90.2995 131.895 90.1646C132.54 90.053 133.139 90.1229 133.692 90.3742C134.243 90.6158 134.636 90.9888 134.872 91.4931L133.916 92.1193C133.764 91.7691 133.506 91.5113 133.145 91.3459C132.792 91.1692 132.418 91.1149 132.023 91.1832C131.609 91.2548 131.294 91.3935 131.079 91.5992C130.862 91.7953 130.776 92.0381 130.821 92.3277C130.858 92.5691 130.99 92.7495 131.216 92.869C131.451 92.9868 131.728 93.0529 132.047 93.0672C132.373 93.0701 132.729 93.0979 133.112 93.1505C133.494 93.1934 133.85 93.2558 134.179 93.3377C134.508 93.4195 134.798 93.6071 135.051 93.9003C135.312 94.1823 135.479 94.5598 135.552 95.0328C135.65 95.6699 135.485 96.2337 135.057 96.724C134.629 97.2144 134.015 97.5287 133.216 97.6669ZM39.4219 132.038L37.8394 121.786L39.0665 121.574L40.6491 131.826L39.4219 132.038ZM48.4249 129.514C47.8407 130.339 47.0096 130.844 45.9316 131.031C44.8536 131.217 43.9137 131.018 43.112 130.433C42.3087 129.839 41.8229 128.996 41.6545 127.905C41.4861 126.815 41.694 125.857 42.2782 125.032C42.861 124.198 43.6913 123.688 44.7693 123.501C45.8473 123.315 46.7879 123.519 47.5912 124.113C48.4026 124.696 48.8925 125.533 49.0609 126.624C49.2293 127.715 49.0173 128.678 48.4249 129.514ZM43.8864 129.497C44.4148 129.911 45.0399 130.055 45.7617 129.93C46.4836 129.805 47.0327 129.458 47.4091 128.887C47.784 128.307 47.9111 127.626 47.7904 126.844C47.6697 126.062 47.3452 125.464 46.8168 125.05C46.2869 124.626 45.6611 124.477 44.9392 124.602C44.2173 124.726 43.6689 125.079 43.2941 125.659C42.9177 126.23 42.7898 126.906 42.9105 127.688C43.0312 128.47 43.3565 129.073 43.8864 129.497ZM56.983 128.034C56.3988 128.858 55.5677 129.364 54.4897 129.55C53.4117 129.737 52.4718 129.538 51.6701 128.953C50.8668 128.358 50.381 127.516 50.2126 126.425C50.0442 125.334 50.2521 124.376 50.8363 123.552C51.4191 122.717 52.2494 122.207 53.3274 122.021C54.4054 121.834 55.346 122.038 56.1493 122.633C56.9607 123.216 57.4506 124.053 57.619 125.144C57.7874 126.234 57.5754 127.198 56.983 128.034ZM52.4445 128.016C52.9729 128.43 53.598 128.575 54.3198 128.45C55.0417 128.325 55.5908 127.977 55.9672 127.407C56.3421 126.826 56.4692 126.145 56.3485 125.363C56.2278 124.581 55.9033 123.983 55.3749 123.569C54.845 123.146 54.2192 122.996 53.4973 123.121C52.7754 123.246 52.227 123.599 51.8522 124.179C51.4758 124.749 51.3479 125.426 51.4686 126.208C51.5893 126.99 51.9146 127.592 52.4445 128.016ZM64.7047 127.664L61.4072 124.548L60.5763 125.598L60.9943 128.306L59.7527 128.521L58.1701 118.269L59.4117 118.054L60.3259 123.977L63.2316 120.426L64.8631 120.144L62.1894 123.565L66.235 127.4L64.7047 127.664ZM69.7111 126.917C68.9026 127.057 68.2065 126.964 67.6227 126.639C67.0485 126.312 66.6245 125.87 66.3507 125.313L67.3331 124.667C67.8198 125.644 68.5588 126.046 69.5502 125.875C69.9833 125.8 70.3182 125.633 70.5549 125.374C70.7998 125.103 70.8984 124.814 70.8507 124.505C70.7985 124.167 70.6132 123.926 70.2946 123.783C69.9761 123.64 69.6024 123.556 69.1737 123.531C68.7545 123.505 68.3291 123.469 67.8973 123.425C67.4737 123.369 67.0937 123.212 66.7572 122.953C66.4208 122.694 66.2131 122.309 66.1341 121.797C66.0447 121.218 66.2034 120.71 66.6103 120.273C67.0172 119.836 67.6104 119.55 68.39 119.415C69.0349 119.303 69.6336 119.373 70.1863 119.624C70.7375 119.866 71.131 120.239 71.367 120.743L70.4112 121.37C70.2583 121.019 70.0011 120.762 69.6396 120.596C69.2862 120.419 68.9122 120.365 68.5176 120.434C68.1037 120.505 67.7891 120.644 67.5739 120.85C67.3571 121.046 67.271 121.288 67.3157 121.578C67.353 121.819 67.4846 122 67.7106 122.119C67.9462 122.237 68.2232 122.303 68.5416 122.317C68.8682 122.32 69.2233 122.348 69.6069 122.401C69.989 122.444 70.3445 122.506 70.6734 122.588C71.0022 122.67 71.2931 122.857 71.5459 123.151C71.8068 123.433 71.9737 123.81 72.0468 124.283C72.1451 124.92 71.9801 125.484 71.5519 125.974C71.1236 126.465 70.51 126.779 69.7111 126.917ZM81.6488 117.24L82.8615 117.03L83.9344 123.981C84.076 124.898 83.8731 125.696 83.3258 126.376C82.7896 127.063 82.021 127.493 81.02 127.667C80.173 127.813 79.4191 127.73 78.7582 127.419C78.0989 127.116 77.6656 126.646 77.4584 126.008L78.611 125.601C78.7121 125.999 78.9697 126.292 79.3838 126.478C79.8091 126.672 80.3008 126.721 80.859 126.624C81.5039 126.512 82.0009 126.243 82.35 125.816C82.6991 125.389 82.8297 124.891 82.7418 124.321L82.5853 123.307C82.4694 123.645 82.2098 123.947 81.8064 124.215C81.4031 124.483 80.9416 124.662 80.4218 124.752C79.3342 124.94 78.431 124.755 77.7122 124.195C77.0015 123.624 76.5642 122.808 76.4003 121.746C76.2349 120.674 76.404 119.753 76.9075 118.982C77.4096 118.201 78.1996 117.718 79.2776 117.531C79.7589 117.448 80.2324 117.475 80.6983 117.613C81.1627 117.741 81.5302 117.945 81.8008 118.225L81.6488 117.24ZM78.5732 123.243C79.0668 123.624 79.6649 123.753 80.3675 123.632C81.0701 123.51 81.5933 123.187 81.9372 122.661C82.2906 122.134 82.4085 121.49 82.2908 120.727C82.173 119.964 81.8674 119.393 81.3739 119.012C80.8885 118.621 80.2945 118.485 79.5919 118.607C78.8796 118.73 78.3475 119.06 77.9955 119.597C77.6517 120.122 77.5386 120.766 77.6564 121.529C77.7741 122.291 78.0797 122.863 78.5732 123.243ZM89.2948 117.151C89.0074 117.082 88.6857 117.078 88.3296 117.14C87.7136 117.247 87.2545 117.633 86.9522 118.3C86.6581 118.955 86.599 119.853 86.7748 120.992L87.204 123.772L85.9768 123.984L84.8503 116.686L86.0775 116.474L86.3054 117.951C86.4457 117.451 86.7044 117.015 87.0817 116.642C87.459 116.27 87.8739 116.044 88.3262 115.966C88.6439 115.911 88.9297 115.906 89.1837 115.952L89.2948 117.151ZM97.134 117.966C97.1653 118.169 97.1847 118.358 97.1923 118.536L91.4462 119.53C91.598 120.257 91.9206 120.81 92.4142 121.191C92.9158 121.56 93.4939 121.688 94.1484 121.575C94.7067 121.478 95.1493 121.273 95.4763 120.958C95.8033 120.644 95.9847 120.251 96.0205 119.779L97.218 119.854C97.1439 120.591 96.8487 121.207 96.3323 121.702C95.8255 122.196 95.1534 122.516 94.3161 122.661C93.2477 122.846 92.3304 122.633 91.5641 122.022C90.8075 121.409 90.3472 120.572 90.1833 119.51C90.0179 118.439 90.1977 117.491 90.7227 116.667C91.2558 115.831 92.0565 115.321 93.1249 115.136C94.174 114.954 95.0676 115.142 95.8056 115.698C96.5422 116.245 96.985 117.001 97.134 117.966ZM91.3597 118.489L95.7631 117.727C95.616 117.158 95.3223 116.728 94.8822 116.438C94.4421 116.147 93.9092 116.056 93.2836 116.164C92.7157 116.262 92.2613 116.519 91.9203 116.935C91.5778 117.341 91.391 117.859 91.3597 118.489ZM100.828 113.803C101.723 113.649 102.483 113.77 103.107 114.167C103.732 114.565 104.109 115.183 104.239 116.023L104.961 120.7L103.748 120.91L103.556 119.665C103.408 120.117 103.132 120.506 102.728 120.834C102.333 121.15 101.87 121.354 101.341 121.446C100.619 121.57 99.9962 121.475 99.4731 121.159C98.9581 120.832 98.6515 120.35 98.5531 119.713C98.3415 118.342 99.3728 117.341 101.647 116.709L103.037 116.305L103.015 116.161C102.937 115.659 102.713 115.291 102.341 115.058C101.977 114.814 101.526 114.738 100.987 114.831C100.486 114.918 100.094 115.13 99.8098 115.466C99.5258 115.803 99.3977 116.221 99.4256 116.722L98.2515 116.702C98.2456 115.96 98.4786 115.325 98.9506 114.797C99.4321 114.268 100.058 113.937 100.828 113.803ZM101.372 120.399C102.074 120.278 102.589 119.966 102.917 119.463C103.245 118.96 103.352 118.342 103.238 117.609L103.185 117.261L101.795 117.665C100.328 118.087 99.6559 118.694 99.7781 119.486C99.8302 119.824 100.003 120.081 100.298 120.258C100.6 120.424 100.958 120.471 101.372 120.399ZM110.774 119.635C110.474 119.806 110.103 119.93 109.66 120.006C109.006 120.119 108.452 120.022 108 119.714C107.555 119.394 107.273 118.848 107.154 118.076L106.532 114.05L105.175 114.285L105.008 113.199L106.365 112.964L106.023 110.749L107.25 110.537L107.592 112.752L109.541 112.415L109.709 113.501L107.76 113.838L108.388 117.907C108.446 118.284 108.586 118.552 108.808 118.712C109.031 118.871 109.305 118.923 109.633 118.866C109.989 118.805 110.282 118.689 110.513 118.521L110.774 119.635ZM112.36 116.477L110.891 109.267L112.48 108.993L113.255 116.322L112.36 116.477ZM112.31 117.883L113.725 117.638L113.958 119.144L112.543 119.389L112.31 117.883ZM116.054 115.838L114.585 108.628L116.174 108.354L116.949 115.683L116.054 115.838ZM116.004 117.244L117.419 116.999L117.652 118.505L116.237 118.75L116.004 117.244ZM119.748 115.199L118.279 107.989L119.867 107.715L120.643 115.044L119.748 115.199ZM119.698 116.605L121.113 116.36L121.345 117.866L119.931 118.111L119.698 116.605Z" fill="white"/>
<g filter="url(#filter0_d_806_733)">
<circle cx="33.8824" cy="33.8824" r="33.8824" transform="matrix(-1 0 0 1 201.124 8.58203)" fill="#E1E4FF"/>
<circle cx="33.8824" cy="33.8824" r="34.7981" transform="matrix(-1 0 0 1 201.124 8.58203)" stroke="white" stroke-width="1.83148"/>
</g>
<mask id="mask0_806_733" style="mask-type:alpha" maskUnits="userSpaceOnUse" x="133" y="8" width="69" height="68">
<circle cx="167.242" cy="42.0064" r="33.8824" fill="#8991DC"/>
</mask>
<g mask="url(#mask0_806_733)">
<path fill-rule="evenodd" clip-rule="evenodd" d="M169.838 39.6808C171.591 35.9924 172.337 31.8483 170.942 27.8021C166.925 16.1439 151.086 23.1895 149.476 30.0483C147.865 36.9072 152.323 52.0161 156.769 51.9737C158.541 51.9568 161.793 49.9633 164.808 46.8329L166.829 63.4027L180.154 59.8324L169.838 39.6808Z" fill="#B28B67"/>
<path fill-rule="evenodd" clip-rule="evenodd" d="M151.419 25.2893C151.675 25.0254 152.211 24.4701 152.497 24.2441C152.564 24.1901 152.998 23.6641 153.014 23.665C153.456 23.6932 154.767 23.8838 154.985 24.2936C155.009 24.3225 155.033 24.3495 155.055 24.3726C155.303 24.6307 155.539 24.9 155.768 25.1749C156.273 25.7785 156.742 26.425 157.197 27.0691C158.084 28.3234 158.912 29.6283 159.705 30.9461C160.512 32.2875 161.26 33.6628 162.048 35.0159C163.182 36.9628 164.461 38.8154 165.591 40.7625C166.312 42.0058 166.877 43.3079 167.151 44.7128C167.155 44.7297 167.159 44.7462 167.162 44.7634C167.163 44.7705 167.164 44.7775 167.165 44.7846C167.206 45.001 167.24 45.2197 167.266 45.4412C167.288 45.6307 167.31 45.8209 167.33 46.0116C166.536 45.1175 165.835 44.0853 165.126 43.1175C165.057 43.0228 164.989 42.9267 164.922 42.8301C164.728 42.6473 164.532 42.4668 164.334 42.2875C163.088 41.1569 161.84 40.0322 160.624 38.8672C158.436 36.7719 156.248 34.6199 153.833 32.8045C153.12 32.2684 152.398 31.746 151.69 31.2026C151.287 30.8933 150.89 30.5755 150.501 30.2481C150.223 30.0139 149.079 29.2443 149.234 28.5563C149.314 28.2042 150.753 25.9741 151.419 25.2893Z" fill="#2C2C2C"/>
<path fill-rule="evenodd" clip-rule="evenodd" d="M152.414 24.3203C152.144 24.4996 152.123 23.8433 152.352 23.5489C153.414 22.1851 158.408 20.4553 163.085 20.1879C166.219 20.0087 170.082 20.6173 172.981 21.9537C175.595 23.1585 177.828 25.614 179.323 28.1642C180.892 30.842 181.82 33.8234 182.171 36.9063C182.249 37.5835 182.206 38.26 182.26 38.9285C182.321 39.6813 182.439 40.3903 182.393 41.1512C182.364 41.617 182.233 42.1013 182.226 42.5639C182.218 43.0919 182.425 43.5229 182.66 43.9947C183.044 44.7635 183.467 45.5201 183.967 46.2185C184.718 47.2674 185.542 48.2172 186.2 49.3382C187.076 50.8297 190.336 55.5729 189.362 57.3649L163.535 64.2853C163.71 62.337 165.103 59.7261 164.989 57.7212C164.922 56.5401 164.378 54.0674 164.379 53.9721C163.886 49.8041 164.509 47.5837 165.035 46.6976C165.56 45.8116 166.451 45.3438 166.338 44.7276C165.871 42.179 164.239 40.0546 162.888 37.9215C161.278 35.3791 159.88 32.7058 158.246 30.18C157.522 29.0615 153.816 23.3895 152.414 24.3203Z" fill="#8991DC"/>
<path fill-rule="evenodd" clip-rule="evenodd" d="M162.238 24.7635C164.04 27.5927 164.691 29.1862 165.613 33.4646L166.091 33.3366C165.916 29.1128 164.116 25.5746 162.838 24.6026L162.238 24.7635ZM177.441 29.2375C176.806 34.1277 176.675 36.95 172.562 41.8717L173.027 42.0409C177.294 37.8413 177.848 34.0474 177.872 29.3187L177.441 29.2375ZM168.783 26.7541C169.633 33.2258 170.349 36.8608 167.887 44.8491L168.382 44.8663C171.206 37.7286 170.604 32.6818 169.219 26.6741L168.783 26.7541ZM178.502 44.0511L177.983 43.6807C173.097 46.7807 174.616 50.0707 168.833 55.3641L169.486 55.5538C174.718 51.5498 174.698 45.9742 178.502 44.0511Z" fill="black" fill-opacity="0.2"/>
<path fill-rule="evenodd" clip-rule="evenodd" d="M169.195 54.0971L164.152 54.1207C159.437 76.6583 148.097 98.3806 130.132 119.288L149.399 135.768C166.076 107.568 174.561 80.0123 169.195 54.0971Z" fill="#191847"/>
<path fill-rule="evenodd" clip-rule="evenodd" d="M201.379 111.847L157.793 119.533C163.562 93.1999 164.933 71.4526 161.907 54.2909L174.709 50.0137C187.973 64.8101 194.498 84.7563 201.379 111.847Z" fill="#DDE3E9"/>
<path fill-rule="evenodd" clip-rule="evenodd" d="M174.988 49.9731C174.986 49.9703 174.984 49.9675 174.981 49.9647L174.123 50.1161C173.102 50.3325 171.549 50.672 169.464 51.1346L167.888 60.7739C169.504 71.9026 171.475 94.5566 173.801 128.736L202.373 123.698C202.706 126.028 202.995 128.388 203.239 130.779L224.484 127.033C214.984 91.7418 198.489 66.0515 174.997 49.962L174.988 49.9731L174.988 49.9731Z" fill="#2F3676"/>
</g>
<path d="M142.281 106.386C142.246 106.149 142.159 105.935 142.04 105.748C141.141 103.81 138.37 104.423 134.382 104.985C133.716 105.079 133.972 104.185 133.935 102.324C133.911 101.113 132.918 99.4131 131.705 99.6149C129.704 99.9478 131.877 101.299 130.721 105.725C130.103 108.09 127.806 107.205 128.135 109.423L128.885 114.471C129.013 115.335 129.216 116.151 130.383 116.097C131.515 116.044 131.389 116.925 132.993 116.658L141.021 115.323C141.838 115.187 142.399 114.372 142.27 113.506C142.217 113.147 142.05 112.84 141.819 112.607C142.233 112.263 142.469 111.703 142.381 111.115C142.328 110.757 142.161 110.449 141.931 110.217C142.346 109.873 142.583 109.313 142.496 108.723C142.432 108.295 142.211 107.934 141.905 107.694C142.199 107.35 142.354 106.878 142.281 106.386Z" fill="#AE7E57"/>
<path d="M137.202 108.838L141.03 108.202C141.551 108.115 141.996 107.739 142.191 107.221C142.272 107.007 142.173 106.764 141.971 106.679C141.769 106.593 141.54 106.698 141.459 106.912C141.366 107.158 141.154 107.337 140.908 107.378L136.988 108.03C136.6 108.094 136.234 107.812 136.173 107.401C136.112 106.99 136.378 106.603 136.767 106.538L139.386 106.103C139.601 106.067 139.748 105.853 139.714 105.626C139.68 105.398 139.478 105.243 139.263 105.279L136.644 105.714C135.826 105.85 135.266 106.665 135.394 107.531C135.466 108.013 135.74 108.405 136.108 108.64C135.877 108.97 135.765 109.394 135.83 109.831C135.902 110.315 136.178 110.709 136.547 110.942C136.318 111.272 136.208 111.694 136.272 112.13C136.351 112.658 136.668 113.082 137.089 113.304C136.897 113.62 136.805 114.005 136.864 114.405C136.992 115.27 137.762 115.864 138.58 115.728L141.019 115.322C141.54 115.235 141.985 114.86 142.181 114.341C142.262 114.127 142.163 113.885 141.961 113.799C141.759 113.714 141.53 113.818 141.449 114.031C141.356 114.278 141.144 114.457 140.897 114.498L138.457 114.904C138.069 114.968 137.703 114.686 137.642 114.275C137.581 113.864 137.848 113.477 138.236 113.412L141.13 112.931C141.651 112.844 142.097 112.468 142.292 111.95C142.373 111.736 142.274 111.493 142.072 111.408C141.868 111.32 141.64 111.426 141.56 111.64C141.466 111.891 141.259 112.065 141.008 112.107L137.866 112.629C137.477 112.694 137.112 112.412 137.051 112.001C136.99 111.589 137.256 111.202 137.645 111.138L141.244 110.539C141.765 110.453 142.21 110.077 142.406 109.558C142.486 109.345 142.388 109.102 142.186 109.016C141.983 108.931 141.754 109.035 141.674 109.249C141.579 109.499 141.373 109.673 141.122 109.715L137.424 110.33C137.035 110.395 136.67 110.113 136.609 109.702C136.548 109.29 136.814 108.903 137.202 108.838Z" fill="#8F613E"/>
<defs>
<filter id="filter0_d_806_733" x="115.96" y="0.340801" width="104.394" height="104.393" filterUnits="userSpaceOnUse" color-interpolation-filters="sRGB">
<feFlood flood-opacity="0" result="BackgroundImageFix"/>
<feColorMatrix in="SourceAlpha" type="matrix" values="0 0 0 0 0 0 0 0 0 0 0 0 0 0 0 0 0 0 127 0" result="hardAlpha"/>
<feOffset dx="0.915739" dy="10.0731"/>
<feGaussianBlur stdDeviation="8.24165"/>
<feColorMatrix type="matrix" values="0 0 0 0 0 0 0 0 0 0 0 0 0 0 0 0 0 0 0.09 0"/>
<feBlend mode="normal" in2="BackgroundImageFix" result="effect1_dropShadow_806_733"/>
<feBlend mode="normal" in="SourceGraphic" in2="effect1_dropShadow_806_733" result="shape"/>
</filter>
</defs>
</svg>
